<?xml version="1.0" encoding="UTF-8" standalone="no"?>
<!-- Created with Inkscape (http://www.inkscape.org/) -->

<svg
   version="1.1"
   id="svg2"
   width="511.36499"
   height="511.36499"
   viewBox="0 0 511.36499 511.36499"
   xmlns="http://www.w3.org/2000/svg"
   xmlns:svg="http://www.w3.org/2000/svg">
  <defs
     id="defs6" />
  <g
     id="g8"
     transform="translate(-0.31775325,-51.659532)">
    <path
       style="fill:#ed64a6;fill-opacity:1"
       d="m 429.72809,511.60164 c -0.5358,-0.13356 -2.68854,-0.53011 -4.78385,-0.88123 -3.87446,-0.64926 -10.67167,-5.85798 -12.97026,-9.93914 -0.64626,-1.14744 -1.41016,-6.81125 -1.69755,-12.58625 l -0.52253,-10.5 -196.07855,-0.5 -196.078556,-0.5 -4.92145,-3.03591 C 6.4164234,469.79815 1.6446334,462.17054 0.68545348,454.49351 c -0.37697,-3.01713 -0.4812,-10.07702 -0.23162,-15.68864 0.39466,-8.87395 0.83118992,-10.89639 3.35128992,-15.52665 1.59364,-2.92803 4.28328,-6.38066 5.97697,-7.67251 6.8147906,-5.19789 8.3462406,-5.41069 38.9396806,-5.41069 15.69267,0 28.53212,-0.15612 28.53212,-0.34693 0,-0.19081 -2.51635,-4.10639 -5.5919,-8.70129 -39.43771,-58.92045 -37.4778,-137.83962 4.84932,-195.26647 7.90065,-10.71913 24.085116,-26.82594 34.742586,-34.57589 4.675,-3.3996 9.88747,-8.07746 11.58327,-10.39525 3.7909,-5.18135 66.58021,-55.26194 71.22132,-56.80593 5.74928,-1.91267 12.86111,-1.29419 17.69536,1.53887 7.79076,4.56569 10.42916,10.6519 10.4756,24.16496 l 0.0245,7.11207 7.68241,0.69616 c 66.67702,6.04212 125.44176,53.50294 145.83203,117.77995 15.59207,49.15147 8.19188,102.64749 -20.12094,145.45432 -2.96642,4.48502 -5.3935,8.42252 -5.3935,8.75 0,0.32749 13.46019,0.59543 29.91152,0.59543 H 410.077 l 0.33847,-10.83152 c 0.31283,-10.0107 0.5467,-11.10423 3.08619,-14.43027 4.5831,-6.00262 8.40732,-8.12146 15.46984,-8.57117 3.77901,-0.24062 7.54578,0.11361 9.4073,0.88468 1.70757,0.70729 17.79052,12.93619 35.73991,27.17533 35.81079,28.4085 37.56379,30.24128 37.56379,39.27295 0,8.98854 -1.8453,10.9388 -36.42855,38.50059 -17.325,13.80749 -32.85,25.83181 -34.5,26.72071 -3.02002,1.62698 -9.21692,3.13623 -11.02581,2.68532 z m 33.9675,-41.47048 c 17.35707,-13.78512 31.55831,-25.66502 31.55831,-26.39977 0,-1.53975 -61.25261,-50.52816 -64.11315,-51.27621 -4.19822,-1.09786 -4.88685,1.12714 -4.88685,15.7897 0,19.80064 4.97318,17.95014 -48.24063,17.95014 h -42.97092 l -7.64422,7.14479 c -8.84125,8.26361 -17.95071,14.86232 -30.61287,22.17536 l -8.96864,5.17985 67.1141,0.5 c 64.21216,0.47838 67.2051,0.58237 69.21864,2.40499 1.94349,1.75921 2.10454,2.94917 2.10454,15.55 0,14.03837 0.51797,16.04501 4.14169,16.04501 0.95793,0 15.94293,-11.27874 33.3,-25.06386 z M 205.2539,443.69502 v -17.5 H 114.17698 23.100044 l -2.92307,2.92308 c -2.89634,2.89633 -2.92308,3.02969 -2.92308,14.57692 0,11.54723 0.0267,11.68059 2.92308,14.57692 l 2.92307,2.92308 h 91.076936 91.07692 z m 39.71684,13.94752 c 18.82983,-3.8312 39.10265,-12.48525 55.78316,-23.81268 11.82236,-8.02835 31.29109,-27.47722 39.18588,-39.14592 14.9049,-22.0298 24.07019,-47.10645 26.76817,-73.23892 l 0.64526,-6.25 H 349.9551 332.55698 l -1.19388,8.53424 c -7.08809,50.66796 -48.30496,93.21028 -97.40452,100.53685 -13.23576,1.97503 -11.70468,-0.52274 -11.70468,19.0947 v 17.12768 l 7.46684,-0.63118 c 4.10677,-0.34715 10.96927,-1.34379 15.25,-2.21477 z M 152.2539,409.73228 c 0,-0.25451 -2.8125,-2.37101 -6.25,-4.70333 -8.87851,-6.02403 -23.71632,-20.7 -29.74451,-29.42009 -10.38265,-15.01903 -17.861076,-34.0052 -20.448236,-51.91384 l -1.15571,-8 -17.20077,-0.27361 -17.20078,-0.27362 v 2.45126 c 0,4.991 2.20737,18.38462 4.59736,27.89532 5.30302,21.10277 15.02227,40.48251 29.06318,57.95065 l 5.42566,6.75 H 125.797 c 14.5513,0 26.4569,-0.20823 26.4569,-0.46274 z m 82.01076,-2.03952 c 22.40117,-4.71223 44.5181,-18.11987 58.56117,-35.5007 38.46883,-47.61213 27.83713,-117.09046 -23.07193,-150.77534 -12.03282,-7.96173 -28.93091,-14.30105 -42.36067,-15.8916 l -4.85401,-0.57489 -0.49226,9.37239 c -0.83212,15.84324 -6.53426,22.87908 -19.19556,23.68529 -8.26696,0.5264 -10.77436,-0.68796 -25.03691,-12.12566 l -11.93941,-9.57469 -4.06059,2.41136 c -21.04323,12.49642 -37.62229,32.90303 -45.62199,56.15457 -5.1687,15.02308 -6.41214,36.59278 -3.04502,52.82153 8.8878,42.83716 44.02562,75.49396 87.60642,81.42064 8.44846,1.14894 24.53098,0.46605 33.51076,-1.4229 z M 95.926854,289.82413 c 4.500116,-31.1934 22.761406,-61.20279 48.151596,-79.12911 3.895,-2.75 6.99039,-5.28572 6.87864,-5.63493 -0.11176,-0.34921 -6.35393,-5.59279 -13.87149,-11.6524 l -13.6683,-11.01747 -8.88355,7.28935 c -29.743276,24.4057 -50.737956,64.14306 -53.947136,102.10762 l -0.63029,7.45634 17.34539,-0.27426 17.34539,-0.27425 z m 270.785016,4.12089 c -3.87486,-33.29939 -15.09693,-60.6969 -34.50896,-84.25 -27.57796,-33.46101 -67.13648,-53.47161 -110.96982,-56.13386 -15.72585,-0.95512 -15.39257,-0.57524 -15.81125,-18.0219 -0.33126,-13.80345 -0.96318,-16.35741 -4.04038,-16.32945 -1.51489,0.0138 -64.3466,49.19512 -64.8613,50.77001 -0.12856,0.39336 0.0964,1.20335 0.5,1.79997 0.80993,1.19741 59.06711,47.66971 62.25025,49.65761 1.47133,0.91886 2.44588,0.95673 3.73695,0.14518 1.48684,-0.9346 1.82089,-3.21452 2.24654,-15.3332 0.47264,-13.45651 0.62916,-14.33984 2.86078,-16.14486 2.99159,-2.41972 12.17527,-2.55426 24.75823,-0.36272 25.77052,4.48839 46.24374,15.06634 64.5058,33.32841 18.90532,18.90532 30.36095,41.68909 33.98439,67.59057 l 1.19388,8.53424 h 17.3829 17.38291 z"
       id="path293" />
  </g>
</svg>
