<?xml version="1.0" encoding="UTF-8" standalone="no"?>
<!-- Created with Inkscape (http://www.inkscape.org/) -->

<svg
   version="1.1"
   id="svg2"
   width="510.892"
   height="510.892"
   viewBox="0 0 510.892 510.892"
   xmlns="http://www.w3.org/2000/svg"
   xmlns:svg="http://www.w3.org/2000/svg">
  <defs
     id="defs6" />
  <g
     id="g8"
     transform="translate(67.264778,-80.209851)">
    <path
       style="fill:#ed64a6;fill-opacity:1"
       d="m -22.228725,574.61594 c -3.749104,-1.12191 -8.482866,-5.60202 -10.227483,-9.67945 -2.155273,-5.0372 -1.637641,-10.05292 2.044897,-19.81451 8.379117,-22.21118 8.676281,-40.47364 0.908029,-55.80355 -1.387605,-2.73831 -7.723348,-12.65293 -14.079428,-22.03248 -16.201268,-23.90793 -20.856206,-34.94755 -23.270731,-55.1887 -1.218085,-10.2113 0.308732,-23.97981 4.053574,-36.55429 11.170809,-37.50949 40.760854,-62.54709 82.086161,-69.45718 12.246585,-2.04777 37.159969,-1.50009 48.880659,1.07457 31.67467,6.95791 59.525987,24.49915 74.342287,46.82205 5.0892,7.66762 11.12748,20.72943 13.02348,28.17197 1.90895,7.49337 2.54666,12.70608 3.49614,28.57773 0.6915,11.55912 1.04021,13.17884 4.3059,20 1.9544,4.08225 6.16008,11.02227 9.34595,15.42227 7.26951,10.0399 9.59084,15.21765 9.63951,21.50102 0.0537,6.9386 -2.81679,11.22149 -9.70509,14.48017 -2.99649,1.41757 -5.44817,3.20992 -5.44817,3.98301 0,0.77308 -0.51484,2.6724 -1.1441,4.2207 -0.62925,1.54831 -1.19175,5.77473 -1.25,9.39205 -0.0888,5.51212 -0.54374,7.15114 -2.81024,10.12342 -2.45155,3.21495 -2.60563,3.90398 -1.64834,7.371 1.74922,6.33515 0.69488,16.57577 -2.13123,20.70019 -3.2877,4.79809 -9.12243,8.39977 -15.89969,9.81462 -5.38624,1.12445 -24.16733,0.7114 -31.76192,-0.69854 -3.05863,-0.56784 -3.16553,-0.46386 -3.87026,3.7642 -2.30536,13.83112 -7.122927,21.73697 -14.542467,23.86486 -4.26864,1.22423 -110.232917,1.17314 -114.337438,-0.0551 z M 91.673163,547.15437 c 1.65342,-6.6 3.32939,-12.79425 3.72438,-13.76501 1.38438,-3.40236 5.524867,-3.99045 15.247517,-2.16566 11.41965,2.14329 26.86942,2.41692 31.28462,0.55408 4.22872,-1.78416 4.93572,-4.79067 2.87204,-12.21331 -2.48021,-8.92082 -2.17479,-12.52391 1.36134,-16.06005 2.39487,-2.39486 2.79621,-3.3696 2,-4.85733 -2.1026,-3.92874 -0.65831,-11.33551 2.58486,-13.25602 0.83449,-0.49416 1.09834,-1.93811 0.74829,-4.09521 -0.55099,-3.39532 1.48678,-8.79172 3.87793,-10.26953 0.67177,-0.41518 3.45919,-1.25886 6.19426,-1.87486 2.73507,-0.61599 5.13218,-1.59797 5.32692,-2.18217 0.19473,-0.58421 -2.52435,-5.28156 -6.04242,-10.43856 -14.58885,-21.38527 -16.53172,-26.69033 -17.71686,-48.37637 -0.48443,-8.86443 -1.60329,-18.65976 -2.50878,-21.96394 -9.28713,-33.88893 -40.927747,-58.68195 -82.977487,-65.01966 -36.297333,-5.47072 -71.465438,6.15813 -90.77956,30.01759 -6.118433,7.55833 -13.100545,21.63296 -15.857633,31.96601 -2.900543,10.8707 -3.118731,28.9818 -0.473557,39.30856 2.550895,9.95869 9.516372,23.25105 20.013127,38.19144 15.012399,21.36767 18.945243,30.11495 20.5185009,45.63648 1.352595,13.3445 -1.4032649,30.02934 -7.5558559,45.74553 -1.266483,3.23511 -2.058868,6.27654 -1.760856,6.75874 0.302708,0.48979 24.0144199,0.76253 53.727424,0.61798 l 53.18559,-0.25873 z M 283.76067,574.6131 c -6.84273,-2.04687 -10.73485,-8.37195 -13.69727,-22.25939 l -1.23737,-5.80066 -5.57954,0.80066 c -9.06202,1.30039 -29.10502,0.95527 -33.46024,-0.57615 -4.88329,-1.71711 -11.50831,-7.62778 -13.27216,-11.84107 -1.56864,-3.747 -1.77105,-13.3172 -0.38395,-18.15372 0.84042,-2.9304 0.6174,-3.81184 -1.75,-6.91645 -2.27617,-2.98495 -2.73024,-4.6174 -2.81908,-10.135 -0.0582,-3.61732 -0.62075,-7.84374 -1.25,-9.39205 -0.62926,-1.5483 -1.1441,-3.44762 -1.1441,-4.2207 0,-0.77309 -2.45168,-2.56544 -5.44817,-3.98301 -6.88955,-3.25928 -9.55183,-7.26763 -9.55183,-14.38134 0,-6.68687 1.48911,-10.07298 9.45328,-21.49596 3.60899,-5.17635 7.98956,-12.46263 9.73462,-16.19173 2.9296,-6.26042 3.26598,-8.08847 4.38782,-23.84617 1.37945,-19.37591 2.96822,-26.60041 8.41338,-38.2575 10.36536,-22.19035 26.54821,-38.16602 50.5109,-49.86423 18.82427,-9.18971 37.64796,-13.43324 59.61901,-13.44024 44.29166,-0.0141 80.23662,20.52908 96.77892,55.3109 8.05719,16.94104 11.93667,36.91933 10.12246,52.12796 -2.41452,20.24115 -7.06946,31.28077 -23.27073,55.1887 -13.34929,19.69932 -16.20488,24.95892 -18.24202,33.59926 -2.92122,12.39011 -1.4581,25.84467 4.64312,42.69716 3.6292,10.02443 4.31455,13.77815 3.40286,18.63786 -0.88304,4.707 -6.78042,11.12505 -11.40208,12.40874 -4.51726,1.25471 -110.3593,1.24004 -114.55783,-0.0159 z m 110.73708,-16.95873 c -0.0931,-0.825 -1.52767,-5.39062 -3.18802,-10.14583 -8.47549,-24.27365 -8.58087,-44.97432 -0.32114,-63.08415 1.57284,-3.44851 8.47023,-14.59502 15.32754,-24.77002 7.00048,-10.38743 13.83304,-21.78888 15.58104,-26 9.02672,-21.74623 7.93689,-45.04634 -3.15721,-67.5 -12.64746,-25.59753 -35.59349,-40.91923 -68.03988,-45.43211 -27.79275,-3.86562 -60.19589,4.09855 -83.06163,20.4152 -7.6382,5.45051 -18.87034,17.42089 -23.3261,24.85922 -7.64431,12.76121 -11.14539,26.13859 -11.14539,42.5857 0,10.92828 -2.33109,21.84504 -6.3641,29.80381 -1.37224,2.70797 -5.91343,10.02838 -10.09155,16.26756 -4.17811,6.23918 -7.44403,11.80157 -7.25761,12.36085 0.18643,0.55929 2.57675,1.52088 5.31182,2.13687 2.73507,0.616 5.52249,1.45968 6.19426,1.87486 2.39624,1.48095 4.42896,6.87397 3.87577,10.28283 -0.29856,1.83986 -0.1327,3.34521 0.3686,3.34521 2.87713,0 5.02746,10.14217 2.96671,13.99272 -0.79828,1.4916 -0.38217,2.47517 2.09527,4.95261 2.76466,2.76465 3.04675,3.59146 2.66914,7.82302 -0.23224,2.60241 -1.02046,6.78322 -1.75161,9.2907 -2.8452,9.75757 0.72279,12.50954 15.9833,12.32784 5.225,-0.0622 13.42396,-0.86168 18.21991,-1.7766 8.80944,-1.68058 12.83743,-1.45105 14.73871,0.83985 0.57236,0.68965 2.41154,6.797 4.08706,13.57188 1.67553,6.77488 3.27968,12.6954 3.56478,13.1567 0.2851,0.46131 24.45188,0.72231 53.70395,0.58001 46.58298,-0.22661 53.16458,-0.44494 53.01638,-1.75873 z M 280.65119,307.59081 c -1.10868,-0.56817 -9.65868,-9.54886 -19,-19.95709 l -16.98423,-18.92405 -43,-0.0715 c -46.25297,-0.077 -47.11301,-0.163 -53.97974,-5.40051 -6.02967,-4.59906 -8.8311,-10.67456 -9.33321,-20.24114 l -0.43785,-8.34215 h -3.22361 c -2.91054,0 -4.80395,1.75087 -19.49603,18.02835 -8.94982,9.91559 -17.217907,18.69059 -18.373497,19.5 -1.1556,0.80941 -4.06057,1.47165 -6.4555,1.47165 -3.47944,0 -4.94178,-0.58736 -7.27749,-2.92308 -3.47487,-3.47487 -3.71526,-7.20409 -1.42308,-22.07692 2.36252,-15.32925 4.00502,-13.6959 -14.25,-14.17066 -15.1639,-0.39437 -15.94984,-0.51881 -21.12025,-3.34385 -2.95364,-1.61384 -6.42721,-4.32 -7.71906,-6.01369 -5.47007,-7.17164 -5.41069,-6.51783 -5.41069,-59.57366 0,-34.4202 0.34807,-50.32787 1.16056,-53.03969 1.50278,-5.01585 6.9574,-11.34077 12.19689,-14.142938 l 4.14255,-2.215509 82.500007,-0.290641 c 88.6964,-0.31247 87.7278,-0.362357 94.98101,4.891838 6.34822,4.59863 9.23422,10.6329 9.92734,20.75686 l 0.59165,8.64194 44,0.5 c 48.57671,0.55201 46.63745,0.29129 53.54477,7.19861 7.06152,7.06153 6.90946,5.72694 6.92769,60.80139 0.01,29.6694 -0.3804,50.92834 -0.97406,53.06535 -1.43248,5.15657 -7.60507,11.84259 -13.44279,14.56095 -4.60965,2.1465 -6.40082,2.35502 -20.30561,2.36393 -17.72585,0.0114 -16.15421,-1.58998 -13.75,14.00977 2.23908,14.52831 2.02034,18.38613 -1.25,22.04597 -3.02086,3.38063 -9.11624,4.76077 -12.76577,2.89047 z m -1.96065,-28.18644 c -2.55106,-14.62136 -2.19595,-19.9239 1.56252,-23.33133 1.89393,-1.71705 4.21623,-1.97121 22.09949,-2.41867 l 19.98317,-0.5 2.91562,-3.26578 2.91562,-3.26577 v -46.43717 c 0,-33.87319 -0.32323,-47.14659 -1.19469,-49.05922 -2.45259,-5.38285 -3.2311,-5.47206 -47.75565,-5.47206 h -41.04966 v 33.63398 c 0,23.09189 -0.37261,34.87765 -1.1888,37.60184 -1.56824,5.23431 -8.72777,13.07626 -14.05346,15.39298 -3.80116,1.65353 -7.76968,1.88662 -37.00774,2.17362 l -32.75,0.32147 v 4.98772 c 0,2.74324 0.68262,6.30775 1.51693,7.92112 3.08788,5.97131 3.0527,5.96727 52.00064,5.96727 h 44.6169 l 5.96374,6.25 c 3.28006,3.4375 9.21231,9.94671 13.18277,14.46491 3.97046,4.5182 7.57691,8.2307 8.01433,8.25 0.43743,0.0193 0.54015,-1.42741 0.22827,-3.21491 z m -159.33308,-54.25 5.69649,-6 45.80651,-0.5 c 25.19357,-0.275 46.55924,-0.87231 47.47926,-1.32735 0.92002,-0.45504 2.38252,-2.32305 3.25,-4.15113 1.36311,-2.87253 1.57724,-9.38298 1.57724,-47.95477 0,-47.50434 -0.23198,-50.01498 -4.8496,-52.48626 -1.39855,-0.74848 -26.91135,-1.08049 -83.02889,-1.08049 H 54.278483 l -2.80577,2.41279 -2.80576,2.41279 -0.27921,46.80957 c -0.28513,47.80058 -0.10349,50.55272 3.53629,53.58169 1.09053,0.90752 7.32318,1.42953 21.29042,1.78316 17.93091,0.45398 19.95455,0.68407 21.98713,2.5 4.6465,4.15121 5.063117,8.26493 2.4812,24.5 -0.53727,3.37833 -0.26922,3.18714 7.710797,-5.5 4.54707,-4.95 10.83082,-11.7 13.96388,-15 z m 10.3095,-12.64803 c -20.31235,-2.31557 -36.245897,-16.88482 -41.113317,-37.59304 -5.04638,-21.46958 7.29878,-45.34354 28.042047,-54.22968 23.23833,-9.95499 51.05664,0.50345 62.03147,23.32106 10.64028,22.12207 3.24664,48.36215 -17.35128,61.5798 -9.00577,5.77898 -20.17629,8.22515 -31.60892,6.92186 z m 19.20179,-17.80231 c 7.05581,-3.058 14.35175,-10.91848 17.2409,-18.57492 6.32304,-16.75653 -3.14101,-36.36485 -20.31606,-42.09228 -7.4859,-2.49636 -18.71524,-1.54759 -25.52035,2.15621 -11.41965,6.21536 -17.55034,17.24722 -16.92813,30.46133 0.67259,14.28426 9.46203,25.39908 23.82185,30.1243 4.43234,1.45849 16.12989,0.34023 21.70179,-2.07464 z m -28.40454,-18.81905 c -10.08189,-9.85416 -11.67332,-12.24187 -10.80236,-16.20735 0.67326,-3.06532 4.61652,-6.02326 8.02969,-6.02326 0.89314,0 4.21867,2.475 7.39007,5.5 3.1714,3.025 6.18487,5.5 6.69661,5.5 0.51174,0 4.96167,-4.05 9.88874,-9 7.98514,-8.02231 9.3511,-9 12.57416,-9 4.40826,0 7.01839,2.55055 7.14437,6.98126 0.0795,2.79564 -1.53644,4.81256 -13.30013,16.60051 -16.7552,16.78975 -16.31491,16.69971 -27.62115,5.64884 z"
       id="path1404" />
  </g>
</svg>
