<?xml version="1.0" encoding="UTF-8" standalone="no"?>
<!-- Created with Inkscape (http://www.inkscape.org/) -->

<svg
   width="135.23mm"
   height="135.23mm"
   viewBox="0 0 135.22999 135.22999"
   version="1.1"
   id="svg1533"
   xml:space="preserve"
   xmlns="http://www.w3.org/2000/svg"
   xmlns:svg="http://www.w3.org/2000/svg"><defs
     id="defs1530" /><g
     id="layer1"
     transform="translate(-41.738877,-105.19682)"><path
       style="fill:#ed64a6;fill-opacity:1;stroke-width:0.264583"
       d="m 92.227599,240.07903 c -0.78853,-0.21468 -1.81588,-0.62655 -2.28302,-0.91525 -1.08362,-0.66972 -2.85145,-2.58333 -3.44262,-3.72652 -0.25152,-0.4864 -2.19639,-8.68449 -4.32192,-18.21799 l -3.86459,-17.33362 -1.19063,-0.17545 c -2.51425,-0.37049 -4.03866,-1.39202 -5.17258,-3.46617 -0.69923,-1.27904 -0.76852,-1.65687 -0.86649,-4.72478 -0.16479,-5.16004 0.84815,-7.52631 3.84902,-8.99145 1.18108,-0.57665 1.64158,-0.62388 7.0187,-0.71991 3.16507,-0.0565 5.75468,-0.16445 5.75468,-0.23985 0,-0.41273 -2.10392,-2.89191 -3.95501,-4.66043 l -2.1246,-2.02983 h -5.23898 c -5.94775,0 -7.23253,-0.22107 -10.37724,-1.78554 -2.72659,-1.35647 -5.35449,-3.99305 -6.69472,-6.71682 -1.30675,-2.65576 -1.83505,-5.24304 -1.72588,-8.45239 0.0783,-2.30069 0.15473,-2.6247 0.82751,-3.50601 1.27717,-1.67304 1.66362,-1.76424 7.47561,-1.76424 5.91777,0 7.31897,0.24589 10.30394,1.80818 2.2176,1.16067 4.9902,3.8061 6.14665,5.86473 1.41209,2.51372 1.94734,4.56975 2.11273,8.11569 l 0.15023,3.2209 1.7927,1.60505 c 1.96387,1.75829 4.66233,5.17284 5.68873,7.19836 l 0.65433,1.29125 h 1.58304 1.58305 v -5.68854 c 0,-5.6312 -0.006,-5.68854 -0.56462,-5.68854 -2.10128,0 -4.87249,-2.02952 -5.70017,-4.17456 -0.43488,-1.12705 -0.48194,-2.1951 -0.48061,-10.90669 0.001,-8.64272 0.0529,-9.82407 0.49066,-11.24479 l 0.48919,-1.5875 -1.87334,-1.75671 -1.87334,-1.7567 -5.76107,-0.12046 c -5.34902,-0.11184 -5.89988,-0.16936 -7.70178,-0.8043 -2.73166,-0.96257 -4.59497,-2.16312 -6.52658,-4.20517 -2.91821,-3.08506 -4.35088,-6.90357 -4.36041,-11.62182 -0.006,-2.8898 0.62431,-4.26239 2.3906,-5.20714 1.15189,-0.61612 1.29093,-0.62705 6.60063,-0.51902 4.68666,0.0953 5.63168,0.18637 6.95201,0.66962 4.33879,1.588 7.41097,4.2044 9.20063,7.83564 1.2697,2.57624 1.8225,5.03234 1.85136,8.22564 l 0.0215,2.38125 1.57914,1.42421 1.57913,1.4242 1.78134,-1.71973 c 1.02875,-0.99318 2.50623,-2.0832 3.49716,-2.58004 0.94371,-0.47317 1.76225,-0.90253 1.81897,-0.95414 0.0567,-0.0516 -0.59812,-0.84465 -1.45521,-1.76234 -2.73827,-2.93189 -4.07187,-6.40359 -4.07187,-10.60007 0,-5.40438 2.45647,-10.07313 6.829661,-12.98043 2.71726,-1.80642 5.40464,-2.62729 8.64846,-2.64169 3.05589,-0.0136 4.85062,0.43112 7.67292,1.90112 3.70144,1.9279 6.93941,6.21885 7.78137,10.31183 1.04009,5.05613 -0.35661,10.25265 -3.75143,13.9575 -0.87067,0.95018 -1.53828,1.76817 -1.48357,1.81775 0.0547,0.0496 0.84271,0.46272 1.75112,0.91807 0.90842,0.45536 2.48484,1.61389 3.50316,2.57452 l 1.85149,1.7466 1.57315,-1.41868 1.57314,-1.41868 0.0169,-2.53736 c 0.0512,-7.66954 3.97428,-13.31304 11.05659,-15.90517 1.32033,-0.48325 2.26534,-0.57427 6.952,-0.66962 5.3097,-0.10803 5.44875,-0.0971 6.60063,0.51902 1.76629,0.94475 2.39645,2.31734 2.39061,5.20714 -0.01,4.71825 -1.44221,8.53676 -4.36042,11.62182 -1.93161,2.04205 -3.79491,3.2426 -6.52658,4.20517 -1.80189,0.63494 -2.35275,0.69246 -7.70177,0.8043 l -5.76107,0.12046 -1.86322,1.7567 -1.86321,1.75671 0.47861,1.71979 c 0.42087,1.51227 0.47885,2.86916 0.48054,11.24479 0.002,8.58427 -0.0457,9.6484 -0.48016,10.7744 -0.82769,2.14504 -3.5989,4.17456 -5.70018,4.17456 -0.55892,0 -0.56462,0.0573 -0.56462,5.68854 v 5.68854 h 1.58305 1.58304 l 0.65433,-1.29125 c 1.02691,-2.02652 3.72521,-5.44038 5.6915,-7.20085 l 1.79548,-1.60753 0.14097,-3.21841 c 0.15506,-3.54004 0.68185,-5.55945 2.11644,-8.11321 1.15645,-2.05863 3.92905,-4.70406 6.14665,-5.86473 2.98497,-1.56229 4.38617,-1.80818 10.30393,-1.80818 5.81355,0 6.19969,0.0912 7.47562,1.76644 0.72108,0.94671 0.74128,1.06392 0.74128,4.29975 0,4.06243 -0.61593,6.25941 -2.57676,9.1911 -1.58461,2.36918 -3.42519,4.00977 -5.87178,5.23375 -3.01441,1.50806 -4.35149,1.73396 -10.26307,1.73396 h -5.23898 l -2.1246,2.02983 c -1.85109,1.76852 -3.95501,4.2477 -3.95501,4.66043 0,0.0754 2.58961,0.18333 5.75468,0.23985 5.37712,0.096 5.83763,0.14326 7.0187,0.71991 3.00087,1.46514 4.01381,3.83141 3.84902,8.99145 -0.098,3.06791 -0.16726,3.44574 -0.86649,4.72478 -1.13392,2.07415 -2.65833,3.09568 -5.17258,3.46617 l -1.19062,0.17545 -3.86339,17.32783 c -2.26822,10.17329 -4.09175,17.77539 -4.41647,18.41178 -0.74455,1.45919 -3.1857,3.64322 -4.74148,4.24208 -1.17428,0.45201 -2.44701,0.49154 -17.53804,0.5447 -13.648361,0.0481 -16.503021,-0.006 -17.705551,-0.33301 z m 34.726061,-4.95608 c 0.53444,-0.4077 1.13714,-1.06255 1.33933,-1.45521 0.34555,-0.67107 7.56933,-32.66093 7.56933,-33.5201 0,-0.34672 -1.03284,-0.39903 -7.87863,-0.39903 -6.79573,0 -7.96175,-0.0582 -8.48337,-0.42358 -0.91795,-0.64295 -1.16564,-1.55418 -0.71539,-2.63178 0.2099,-0.50237 0.41748,-0.93876 0.46128,-0.96977 0.0438,-0.031 5.18001,-0.1203 11.41378,-0.19844 l 11.33412,-0.14206 0.63827,-0.74235 c 0.59721,-0.69461 0.63773,-0.94139 0.62986,-3.83646 -0.009,-3.21826 -0.13656,-3.65863 -1.23097,-4.24151 -0.83084,-0.44251 -64.423731,-0.44251 -65.254571,0 -1.09441,0.58288 -1.22221,1.02325 -1.23097,4.24151 -0.008,2.89507 0.0326,3.14185 0.62986,3.83646 l 0.63827,0.74235 11.33412,0.14206 c 6.23377,0.0781 11.36997,0.16743 11.41378,0.19844 0.0438,0.031 0.25138,0.4674 0.461281,0.96977 0.45026,1.0776 0.20256,1.98883 -0.715391,2.63178 -0.52162,0.36536 -1.68764,0.42358 -8.48337,0.42358 -6.83106,0 -7.87863,0.0528 -7.87863,0.39735 0,0.39051 6.65309,30.54891 7.16196,32.4651 0.32266,1.21499 1.28192,2.38309 2.42195,2.94922 0.77703,0.38586 2.56007,0.42403 17.159771,0.36728 l 16.29263,-0.0633 z m -31.052891,-6.48922 c -0.53014,-0.42929 -0.8146,-1.67064 -2.53129,-11.04636 -1.06372,-5.80949 -1.93924,-10.83602 -1.9456,-11.17006 -0.0174,-0.91348 1.11753,-1.9062 2.17925,-1.9062 1.82163,0 1.87408,0.1557 4.01732,11.92522 2.01644,11.0732 2.05195,11.51454 0.99136,12.32032 -0.656,0.4984 -2.02013,0.43654 -2.71104,-0.12292 z m 11.386551,-53.98486 c 0,-6.79041 0.0245,-7.13922 0.54837,-7.8052 0.77467,-0.98484 2.36192,-0.98484 3.13659,0 0.52387,0.66598 0.54837,1.01479 0.54837,7.8052 v 7.10807 h 3.43959 3.43958 v -6.49994 -6.49995 l -0.69245,-0.90785 c -1.34436,-1.76253 -1.40013,-2.22982 -1.41261,-11.83501 l -0.0116,-8.94172 0.64944,-0.64943 c 0.80338,-0.80338 1.94317,-0.84329 2.88676,-0.10106 l 0.69714,0.54837 v 8.40798 c 0,5.47122 0.10243,8.70183 0.29327,9.24925 0.5866,1.68273 2.82885,2.04548 3.93684,0.63691 0.50951,-0.64774 0.53238,-1.05948 0.53238,-9.58139 0,-7.1658 -0.0797,-9.21249 -0.40807,-10.4815 -1.07806,-4.16594 -4.49731,-7.38868 -8.79922,-8.2935 -1.81751,-0.38228 -11.51789,-0.38228 -13.33541,0 -4.301911,0.90482 -7.721161,4.12756 -8.799211,8.2935 -0.3284,1.26901 -0.40808,3.3157 -0.40808,10.4815 0,8.52191 0.0229,8.93365 0.53239,9.58139 1.10799,1.40857 3.35024,1.04582 3.93684,-0.63691 0.19084,-0.54742 0.29327,-3.77803 0.29327,-9.24925 v -8.40798 l 0.69714,-0.54837 c 0.94359,-0.74223 2.083371,-0.70232 2.886761,0.10106 l 0.64943,0.64943 -0.0116,8.94172 c -0.0125,9.60519 -0.0682,10.07248 -1.4126,11.83501 l -0.69245,0.90785 v 6.49995 6.49994 h 3.43958 3.43959 z m -27.252081,-6.09322 c 0,-4.63107 -2.26926,-8.43077 -6.21771,-10.41106 -1.9621,-0.98407 -3.70224,-1.25848 -7.98053,-1.25848 h -3.85345 l 0.10609,2.71198 c 0.0949,2.4262 0.19893,2.89906 0.98715,4.4873 1.53777,3.0986 4.7822,5.64089 8.00926,6.27595 0.62919,0.12382 2.90015,0.23817 5.04658,0.25411 l 3.90261,0.029 z m 67.479421,1.82219 c 3.44611,-0.65355 6.62699,-3.08955 8.21652,-6.29245 0.78822,-1.58824 0.89224,-2.0611 0.98715,-4.4873 l 0.10609,-2.71198 h -3.85345 c -4.35147,0 -6.01475,0.2725 -8.12066,1.33043 -3.83383,1.92599 -6.07758,5.69919 -6.07758,10.22037 v 2.20753 h 3.66806 c 2.01743,0 4.30067,-0.11997 5.07387,-0.2666 z M 84.489889,131.78716 c -0.095,-2.36582 -0.19608,-2.79405 -1.0827,-4.58802 -1.19688,-2.42172 -2.96354,-4.15319 -5.42953,-5.32138 -1.77067,-0.8388 -1.80132,-0.84307 -6.63897,-0.92553 l -4.86009,-0.0828 0.10871,2.59638 c 0.0889,2.12204 0.24092,2.88303 0.83238,4.1654 1.41438,3.0666 3.84647,5.24552 6.96825,6.24289 1.23917,0.3959 2.40624,0.49684 5.87651,0.50824 l 4.33025,0.0142 -0.10481,-2.60936 z m 59.815031,2.1081 c 3.2021,-0.99661 5.42409,-2.93668 6.97777,-6.09245 0.72943,-1.48157 0.84988,-2.03376 0.94156,-4.31617 l 0.10512,-2.61725 -4.86009,0.0828 c -4.83765,0.0825 -4.8683,0.0867 -6.63897,0.92553 -2.46599,1.16819 -4.23265,2.89966 -5.42953,5.32138 -0.88662,1.79397 -0.98768,2.2222 -1.0827,4.58802 l -0.10481,2.60937 h 4.24053 c 3.41874,0 4.55266,-0.0971 5.85112,-0.50127 z m -32.91134,-1.90334 c 3.36542,-0.62213 6.70839,-3.12147 8.16596,-6.1052 2.81649,-5.76552 0.34343,-12.57143 -5.58924,-15.38168 -1.65866,-0.7857 -1.98942,-0.84705 -4.56631,-0.84705 -2.5769,0 -2.90766,0.0614 -4.56632,0.84705 -3.53798,1.67591 -5.967601,4.84789 -6.616941,8.63874 -0.98388,5.74382 2.961641,11.46694 8.802011,12.76764 1.87898,0.41847 2.48246,0.42959 4.37084,0.0805 z"
       id="path1666" /></g></svg>
