<?xml version="1.0" encoding="UTF-8" standalone="no"?>
<!-- Created with Inkscape (http://www.inkscape.org/) -->

<svg
   version="1.1"
   id="svg2"
   width="511.22699"
   height="511.22699"
   viewBox="0 0 511.22699 511.22699"
   xmlns="http://www.w3.org/2000/svg"
   xmlns:svg="http://www.w3.org/2000/svg">
  <defs
     id="defs6" />
  <g
     id="g8"
     transform="translate(82.288134,-36.020306)">
    <path
       style="fill:#ed64a6;fill-opacity:1"
       d="m 14.018056,544.12693 c -1.706805,-1.28241 -94.94696,-162.74344 -96.126062,-166.45845 -0.359901,-1.13396 -0.16332,-3.12594 0.436847,-4.42664 0.698025,-1.51278 14.059553,-10.65233 37.08212,-25.36491 28.055509,-17.92888 42.0980293,-27.69922 63.689701,-44.31324 33.71768,-25.94456 46.63256,-34.66367 64.76472,-43.72408 7.66374,-3.82947 14.09794,-7.05154 14.29822,-7.16015 0.20027,-0.10861 -2.30081,-3.73413 -5.55798,-8.05671 -11.31237,-15.01265 -20.45467,-36.01574 -23.83187,-54.7502 -2.10152,-11.65789 -2.13639,-34.14429 -0.0707,-45.58584 8.39928,-46.522023 42.411428,-85.761562 86.901418,-100.257469 14.97621,-4.87961 23.03173,-6.083912 40.695,-6.083912 12.20468,0 18.69906,0.474285 24.94742,1.821912 27.01304,5.826085 46.97347,16.564269 66.15807,35.591301 25.52012,25.310508 38.22592,55.923948 38.19131,92.018388 -0.0253,26.38255 -7.19573,49.91743 -22.0848,72.48705 -6.09605,9.2407 -24.78747,27.94285 -34.212,34.23164 -15.19248,10.13763 -34.33103,17.85874 -50.5,20.37332 -7.95614,1.23733 -8.02942,1.27634 -13.36566,7.11623 -3.24323,3.54934 -14.01959,12.05584 -27.24348,21.50511 -12.0328,8.59816 -21.71973,15.79111 -21.52651,15.98433 0.19323,0.19323 6.82779,1.19461 14.74348,2.2253 l 14.39217,1.87398 45.94385,-26.58224 c 25.26912,-14.62022 47.76912,-27.23448 50,-28.03168 2.23088,-0.7972 7.50497,-1.67009 11.72019,-1.93976 9.21724,-0.58966 19.12514,2.01039 25.63735,6.72781 2.29971,1.6659 4.58467,3.02891 5.07768,3.02891 0.49301,0 3.98441,-1.4592 7.75866,-3.24267 6.23235,-2.94501 7.73433,-3.24334 16.36227,-3.25 11.79766,-0.009 17.84797,1.93486 26.38353,8.477 6.02596,4.61865 6.4474,4.77285 13.21864,4.83656 20.56531,0.19351 37.41162,15.13115 40.64848,36.04305 1.34752,8.7057 -0.8847,19.56536 -5.53604,26.93259 -4.47506,7.08804 -79.89249,90.43577 -85.57598,94.57449 -9.90522,7.21296 -21.0751,10.95152 -36.44698,12.19878 -7.76906,0.63038 -8.60572,0.51613 -10.56445,-1.4426 -1.16996,-1.16996 -2.1272,-3.39119 -2.1272,-4.93607 0,-5.4084 1.72253,-6.36896 14.96326,-8.34416 15.88651,-2.36988 22.14117,-5.35377 31.75424,-15.14888 3.88537,-3.95895 22.25859,-24.07309 40.82937,-44.69809 36.87903,-40.95844 38.4812,-43.19253 38.36728,-53.5 -0.0781,-7.0623 -1.30668,-10.80645 -5.47484,-16.68406 -6.08421,-8.57945 -19.705,-12.95782 -29.70784,-9.54951 -2.46215,0.83894 -22.80609,12.65164 -45.20877,26.25046 -22.40268,13.59882 -41.5334,24.93465 -42.51271,25.19075 -1.5831,0.41399 -32.9229,-3.14855 -63.50999,-7.21947 -6.05,-0.80522 -16.85,-2.1583 -24,-3.00685 -7.15,-0.84856 -17.95,-2.19997 -24,-3.00314 -6.05,-0.80317 -18.65,-2.39331 -28,-3.53365 -20.70829,-2.5256 -23.91315,-4.17795 -22.10176,-11.39513 0.39818,-1.58644 10.13654,-9.14129 31.62259,-24.53224 17.07598,-12.23191 32.11267,-23.65224 33.41488,-25.3785 3.84609,-5.09856 5.56429,-10.43845 5.56429,-17.2929 0,-10.53668 -4.81646,-18.75093 -13.89053,-23.68966 -7.47896,-4.07056 -12.6356,-4.30518 -28.2277,-1.28433 -18.8986,3.66147 -32.5045,7.66397 -49.37368,14.52446 -26.121728,10.62338 -38.712078,18.46808 -77.675678,48.3975 L 5.4642973,332.3869 17.411752,353.13191 c 6.5711,11.40976 26.22151,45.60068 43.66758,75.97982 28.55447,49.72238 31.96963,55.236 34.22013,55.24683 1.375,0.007 39.583288,-4.71153 84.907308,-10.48479 45.32401,-5.77326 83.84177,-10.49684 85.59501,-10.49684 4.11349,0 6.49769,2.68068 6.49769,7.30569 0,2.68273 -0.59545,4.03577 -2.25,5.11269 -2.49086,1.62126 -3.24112,1.72277 -148.75,20.12476 -15.125,1.91281 -28.623588,3.96407 -29.996848,4.55837 -1.37326,0.5943 -17.12326,10.42339 -35,21.84242 -17.87674,11.41903 -33.48608,21.27807 -34.68742,21.90897 -2.83934,1.49113 -5.524003,1.45476 -7.597146,-0.1029 z m 36.163006,-35.03611 c 15.60988,-10.01764 28.31814,-18.66389 28.24058,-19.21389 -0.18625,-1.32075 -83.0591947,-145.62166 -84.5890917,-147.28913 -0.946499,-1.03161 -6.9155623,2.36433 -29.8810013,17 -20.645557,13.15723 -28.590344,18.73193 -28.313742,19.86719 0.316288,1.29814 78.676286,138.34691 83.290445,145.67194 0.77953,1.2375 1.74444,2.23375 2.14426,2.21389 0.39982,-0.0199 13.49867,-8.23235 29.10855,-18.25 z m -25.3816,-5.59273 c -8.222258,-3.77179 -13.456076,-11.79251 -13.456076,-20.62116 0,-15.89519 16.673026,-26.89129 30.956076,-20.41597 5.55218,2.51712 8.63273,5.32035 11.07083,10.0742 4.72373,9.21043 3.30412,18.40319 -4.00531,25.93662 -6.71652,6.92236 -16.20159,8.86309 -24.56552,5.02631 z m 12.42848,-13.58417 c 7.19459,-3.72047 4.726,-14.53699 -3.3177,-14.53699 -8.6666,0 -11.30518,10.8124 -3.59107,14.71555 3.15269,1.59519 3.49586,1.58632 6.90877,-0.17856 z M 325.18915,333.23822 c 20.13568,-12.17629 37.22876,-22.71081 37.98464,-23.41003 1.14687,-1.06092 0.87414,-1.52998 -1.64791,-2.83418 -1.66222,-0.85957 -5.16265,-2.04253 -7.77873,-2.62881 -9.0038,-2.01779 -12.00567,-0.70478 -54.01572,23.62641 -21.41258,12.40164 -39.35946,22.96174 -39.88196,23.46688 -0.58876,0.56921 -0.20852,0.95113 1,1.00441 1.0725,0.0473 6,0.66574 10.95,1.37434 16.87926,2.4163 12.59847,4.06793 53.38968,-20.59902 z m -58.32414,-2.96949 c 18.11395,-10.50951 35.35058,-20.48273 38.30361,-22.1627 l 5.36915,-3.05451 -3.36915,-1.77241 c -4.72138,-2.48378 -12.60414,-3.3199 -17.88729,-1.8973 -5.05031,1.35991 -79.75029,44.35415 -77.7791,44.76646 0.71348,0.14924 5.79724,0.88369 11.29724,1.63212 5.5,0.74843 10.25449,1.41382 10.56554,1.47866 0.31105,0.0648 15.38605,-8.48081 33.5,-18.99032 z m -41.66514,-51.86637 c 4.2535,-1.08601 9.39097,-2.66101 11.41661,-3.5 2.02565,-0.83899 5.26328,-2.17968 7.19474,-2.97931 l 3.51175,-1.45389 -2.69528,-5.49559 c -2.30209,-4.69385 -2.52478,-5.86982 -1.52649,-8.06084 2.85506,-6.26617 9.9008,-5.76537 13.98357,0.99394 1.48508,2.45864 3.01143,4.47026 3.39191,4.47026 0.38047,0 4.01478,-2.64068 8.07625,-5.86818 7.31029,-5.80922 16.76991,-15.75868 21.24678,-22.34699 l 2.31701,-3.40978 -4.4286,-2.67497 c -4.98962,-3.01384 -6.81826,-6.43991 -5.41177,-10.13928 1.80334,-4.74312 6.91904,-5.81419 12.24895,-2.56454 1.80079,1.09795 3.78126,1.99795 4.40103,2 2.33518,0.008 8.53646,-17.93066 10.84707,-31.37725 0.83934,-4.88454 1.52607,-9.49704 1.52607,-10.25 0,-1.06801 -2.21313,-1.36901 -10.06574,-1.36901 -5.53616,0 -10.9577,-0.47736 -12.04787,-1.0608 -4.79639,-2.56695 -4.34551,-10.49772 0.72825,-12.80948 1.36371,-0.62135 6.77552,-1.12972 12.02625,-1.12972 h 9.54679 l -0.66985,-5.25 c -1.65804,-12.99506 -9.24279,-37.75 -11.56635,-37.75 -0.49673,0 -2.37652,0.89831 -4.17731,1.99626 -5.81771,3.54706 -11.15127,2.22124 -13.09412,-3.25495 -1.08438,-3.05648 1.06232,-6.50602 5.76319,-9.26092 l 4.54817,-2.6654 -3.24571,-4.568549 C 281.70844,88.29642 260.52266,69.207356 259.57001,72.065307 c -0.21669,0.650075 -1.71903,3.01113 -3.33853,5.246788 -2.45369,3.387218 -3.51487,4.064834 -6.3657,4.064834 -2.50485,0 -3.97626,-0.705702 -5.49373,-2.634859 -2.66238,-3.384667 -2.59696,-4.905733 0.43947,-10.217215 1.36837,-2.39364 2.48795,-4.489147 2.48795,-4.656682 0,-0.167535 -3.2625,-1.660436 -7.25,-3.317557 -8.96842,-3.727089 -21.88741,-7.075007 -30.35087,-7.865337 l -6.39913,-0.59756 v 10.644605 c 0,11.99532 -1.26634,14.644605 -7,14.644605 -5.73366,0 -7,-2.649285 -7,-14.644605 V 52.087719 l -6.39913,0.59756 c -8.46346,0.79033 -21.38245,4.138248 -30.35087,7.865337 -3.9875,1.657121 -7.25,3.150022 -7.25,3.317557 0,0.167535 1.11958,2.263042 2.48795,4.656682 3.03643,5.311482 3.10185,6.832548 0.43947,10.217215 -1.51747,1.929157 -2.98888,2.634859 -5.49373,2.634859 -2.85083,0 -3.91201,-0.677616 -6.3657,-4.064834 -1.6195,-2.235658 -3.12184,-4.596713 -3.33853,-5.246788 -0.95041,-2.85123 -21.93122,16.072173 -29.4482,26.56048 l -3.21875,4.491043 4.82801,3.00126 c 5.84631,3.63426 7.24554,7.25385 4.32399,11.18546 -2.52347,3.39591 -7.23273,3.85019 -11.824968,1.14071 -1.92713,-1.13703 -3.89544,-2.06733 -4.37402,-2.06733 -2.2946,0 -9.88795,24.85391 -11.53336,37.75 l -0.66985,5.25 h 9.54679 c 5.25073,0 10.662548,0.50837 12.026258,1.12972 5.07376,2.31176 5.52464,10.24253 0.72825,12.80948 -1.09017,0.58344 -6.553948,1.0608 -12.141718,1.0608 h -10.15958 l 0.66985,5.25 c 1.75953,13.79047 9.2767,37.7544 11.84052,37.74626 0.64752,-0.002 2.65069,-0.90205 4.45148,-2 5.329918,-3.24965 10.445618,-2.17858 12.248958,2.56454 1.4038,3.69228 -0.38879,7.04071 -5.45857,10.19622 l -4.50213,2.80219 6.01998,7.7204 c 3.31098,4.24621 6.55944,7.71211 7.21879,7.70199 0.65934,-0.0101 6.14881,-1.60538 12.19881,-3.54503 14.19775,-4.55184 38.71777,-9.43657 47.36907,-9.43657 23.4254,0 42.13093,18.74068 42.13093,42.2101 0,2.77238 0.45633,4.7899 1.08339,4.7899 0.59586,0 4.56352,-0.88856 8.81701,-1.97457 z m -53.73294,-88.98634 c -19.61534,-0.4957 -21.44663,-0.69534 -22.75,-2.48022 -2.10856,-2.88755 -1.72281,-6.92338 0.89699,-9.38456 2.10207,-1.97479 3.38034,-2.17431 13.9302,-2.17431 h 11.61574 l -0.9302,-3.2434 c -0.5116,-1.78387 -0.93019,-5.60887 -0.93019,-8.5 v -5.2566 h -17.45295 c -10.66282,0 -18.40114,0.43203 -19.89013,1.11046 -3.41087,1.55409 -5.04474,5.04885 -4.2349,9.05818 1.82981,9.05902 1.81503,9.59431 -0.32405,11.73339 -4.01136,4.01136 -9.27623,2.61058 -12.31053,-3.27536 -4.20581,-8.15842 -2.15668,-20.45348 4.36524,-26.19205 6.66888,-5.86788 6.87177,-5.91166 28.9941,-6.25589 l 20.64677,-0.32126 0.39374,-11.67874 c 0.31828,-9.44055 0.79852,-12.44532 2.5059,-15.67873 5.67184,-10.74126 18.51827,-15.30703 29.30681,-10.41597 5.59801,2.53789 8.58133,5.27635 11.34732,10.41597 1.99163,3.70074 2.17783,5.7207 2.48883,27 0.415,28.39511 -0.17482,31.7946 -6.68052,38.50349 -4.67904,4.82518 -12.53099,8.30114 -17.58713,7.7856 -1.13768,-0.116 -11.66814,-0.4535 -23.40104,-0.75 z m 30.37799,-16.49364 2.45455,-2.45454 V 147.0967 123.72555 l -2.49186,-2.34098 c -1.47583,-1.38647 -3.72171,-2.34098 -5.50814,-2.34098 -1.78643,0 -4.03231,0.95451 -5.50814,2.34098 l -2.49186,2.34098 v 22.89144 c 0,14.28502 0.40054,23.63985 1.06537,24.88209 2.27227,4.24577 8.90158,5.00181 12.48008,1.4233 z M 16.758092,250.56075 c -4.844384,-2.2766 -8.9380087,-6.90451 -12.1040307,-13.68382 -3.656728,-7.83004 -2.860546,-15.25489 2.39434,-22.32859 3.6801577,-4.95393 28.7170007,-17.17981 35.1196007,-17.14945 15.21241,0.0721 26.42261,16.93551 20.26648,30.48662 -2.23267,4.91463 -6.46523,8.70281 -19.18913,17.17443 -9.00851,5.9979 -10.33902,6.57264 -16.13209,6.96854 -4.7952,0.3277 -7.28583,-0.0253 -10.35517,-1.46773 z m 20.85044,-19.38818 c 11.97544,-7.9182 13.61422,-10.10951 11.13945,-14.8952 -3.04614,-5.89058 -5.13807,-5.84725 -17.87062,0.37017 -7.10932,3.47154 -12.07187,6.55364 -13.11467,8.14517 -1.593396,2.43182 -1.56814,2.77428 0.50313,6.82228 2.36656,4.62512 4.55693,6.76194 6.93139,6.76194 0.83352,0 6.41861,-3.24196 12.41132,-7.20436 z m 321.044378,19.75699 c -5.31834,-2.31405 -23.87768,-15.1985 -26.66622,-18.5125 -11.08028,-13.16817 -0.028,-35.04013 17.70644,-35.04013 3.55011,0 7.37484,1.47636 18.78212,7.25 16.73549,8.47043 19.81803,11.63022 20.60512,21.12151 0.78764,9.49791 -5.72061,20.76934 -14.2809,24.73263 -4.70581,2.17872 -11.7221,2.3736 -16.14656,0.44849 z m 11.59338,-14.49945 c 1.07075,-1.07075 2.6812,-3.36696 3.57878,-5.10269 2.92032,-5.64727 1.04536,-7.82197 -12.3322,-14.30367 -6.43137,-3.11613 -12.27635,-5.66144 -12.98885,-5.65625 -2.67849,0.0195 -6.20455,4.82221 -6.20455,8.45096 0,3.38832 0.45872,3.83897 11.24332,11.04546 6.18382,4.13215 12.03382,7.51301 13,7.51301 0.96617,0 2.63275,-0.87607 3.7035,-1.94682 z M -6.2091157,168.58635 c -13.3386753,-6.3072 -16.9739693,-26.02825 -6.8612993,-37.22178 5.6169243,-6.21726 10.0665343,-7.38198 25.118891,-6.57506 17.227396,0.92352 22.008156,2.36859 27.145796,8.20526 4.53482,5.15182 5.54001,8.69403 4.91586,17.32293 -0.48095,6.64894 -3.13226,11.37049 -8.41917,14.99314 -4.52475,3.10041 -8.73911,3.89147 -24.3915,4.57845 -11.9456077,0.52429 -13.9615487,0.37427 -17.5085777,-1.30294 z M 22.042552,154.7719 c 3.83992,-0.3934 5.64638,-1.11292 6.75,-2.68857 2.01035,-2.87017 1.90592,-6.99966 -0.24309,-9.61273 -1.52968,-1.86 -3.37895,-2.25057 -14.688584,-3.10223 -16.4877537,-1.2416 -17.5614167,-0.75403 -17.5614167,7.97491 0,9.46853 1.528009,9.90946 25.7430907,7.42862 z m 348.256918,14.57238 c -8.90343,-0.89379 -12.50495,-2.16518 -16.3761,-5.78097 -11.62153,-10.85493 -7.24622,-32.25138 7.48988,-36.62753 2.56759,-0.76249 10.71228,-1.70664 18.09932,-2.09812 12.18166,-0.64555 13.85167,-0.52567 17.95357,1.28879 8.62397,3.81479 12.7759,10.71908 12.81137,21.30414 0.0168,5.01226 -0.56444,7.7304 -2.47129,11.55694 -5.31737,10.67057 -13.06625,12.81027 -37.50675,10.35675 z m 23.13922,-14.879 c 1.93083,-1.56349 2.36078,-2.85444 2.36078,-7.08835 0,-4.27827 -0.42254,-5.51886 -2.43466,-7.14817 -2.57449,-2.0847 -1.43159,-2.07083 -21.65448,-0.26269 -7.51147,0.67161 -10.41086,2.70465 -10.41086,7.30008 0,5.66747 2.42255,7.10525 13.5,8.01219 15.45738,1.26554 16.10727,1.23719 18.63922,-0.81306 z M 23.123682,90.126929 C 10.864819,83.92228 8.3669023,82.251716 5.7994613,78.540787 c -2.614228,-3.778554 -2.995244,-5.193052 -2.963012,-11 0.096352,-17.359108 15.8068327,-29.643134 30.2132627,-23.623746 4.56662,1.908059 20.61574,12.69378 24.98738,16.792638 4.22601,3.962309 6.66515,10.401431 6.04023,15.945683 -1.00775,8.940752 -7.30967,17.365897 -14.63002,19.559127 -7.8852,2.362465 -11.09507,1.620156 -26.32362,-6.08756 z m 22.23117,-7.779644 c 2.98,-1.594847 5.10166,-6.427095 4.04367,-9.209797 -0.5303,-1.394799 -5.39033,-5.324721 -11.94303,-9.657394 -12.97178,-8.576984 -14.78812,-8.667201 -18.83743,-0.935653 -3.616194,6.904562 -2.501401,8.383427 11.44738,15.18592 12.61295,6.151035 12.49145,6.114346 15.28941,4.616924 z M 341.29947,95.782624 c -5.00919,-2.169726 -8.89838,-6.155658 -11.61671,-11.905695 -3.61874,-7.654644 -2.77534,-15.503759 2.31606,-21.554547 2.89169,-3.436572 21.58103,-16.329004 26.88177,-18.543795 7.53552,-3.148542 17.48676,-0.66522 22.86542,5.706044 9.71356,11.506148 9.80898,25.590366 0.22687,33.488745 -1.97169,1.625231 -9.16584,5.530898 -15.987,8.679259 -13.44267,6.20457 -18.09859,6.983496 -24.68641,4.129989 z m 20.9958,-18.403587 c 13.98033,-7.008129 14.81706,-8.232975 10.57226,-15.476182 -4.21131,-7.186055 -5.76558,-7.035011 -19.11811,1.857897 -11.00819,7.331549 -11.44995,7.762371 -11.44995,11.166426 0,3.794128 3.56478,8.449751 6.46992,8.449751 0.85846,0 6.9451,-2.699052 13.52588,-5.997892 z"
       id="path293" />
  </g>
</svg>
