<?xml version="1.0" encoding="UTF-8" standalone="no"?>
<svg
   width="908.99939"
   height="142.34526"
   viewBox="0 0 908.99939 142.34526"
   fill="none"
   version="1.1"
   id="svg2"
   sodipodi:docname="GRACIAS 2.svg"
   inkscape:version="1.3.2 (091e20e, 2023-11-25, custom)"
   xmlns:inkscape="http://www.inkscape.org/namespaces/inkscape"
   xmlns:sodipodi="http://sodipodi.sourceforge.net/DTD/sodipodi-0.dtd"
   xmlns="http://www.w3.org/2000/svg"
   xmlns:svg="http://www.w3.org/2000/svg">
  <defs
     id="defs2" />
  <sodipodi:namedview
     id="namedview2"
     pagecolor="#ffffff"
     bordercolor="#000000"
     borderopacity="0.25"
     inkscape:showpageshadow="2"
     inkscape:pageopacity="0.0"
     inkscape:pagecheckerboard="0"
     inkscape:deskcolor="#d1d1d1"
     inkscape:zoom="0.88452915"
     inkscape:cx="455.04436"
     inkscape:cy="70.659062"
     inkscape:window-width="1366"
     inkscape:window-height="697"
     inkscape:window-x="-8"
     inkscape:window-y="-8"
     inkscape:window-maximized="1"
     inkscape:current-layer="svg2" />
  <mask
     id="path-1-outside-1_47_348"
     maskUnits="userSpaceOnUse"
     x="-9"
     y="-8.93311"
     width="910"
     height="143"
     fill="#000000">
    <rect
       fill="#ffffff"
       x="-9"
       y="-8.9331102"
       width="910"
       height="143"
       id="rect1" />
    <path
       d="M 119.21,122.067 H 105.586 L 98.1815,107.11 c -3.3567,5.331 -8.3917,9.675 -15.1051,13.032 -6.7134,3.258 -13.7723,4.887 -21.1768,4.887 -16.9808,0 -31.4936,-6.072 -43.5381,-18.215 C 6.4156,94.6704 0.442673,80.0096 0.442673,62.8313 0.442673,45.6529 6.4156,30.9921 18.3615,18.8488 30.406,6.70549 44.9188,0.63384 61.8996,0.63384 c 10.0701,0 19.4491,2.2707 28.137,6.8121 8.7866,4.44266 15.8454,10.71176 21.1764,18.80736 5.332,8.0955 7.997,17.0302 7.997,26.8041 H 80.707 c 0,-4.5414 -1.4809,-8.3424 -4.4427,-11.4029 -2.8631,-3.0605 -6.4666,-4.5907 -10.8105,-4.5907 -5.6274,0 -10.0207,2.2213 -13.1799,6.664 -3.1593,4.4426 -4.7389,10.8105 -4.7389,19.1035 0,7.898 1.6783,14.1671 5.035,18.8073 3.4554,4.6401 7.7007,6.9602 12.7357,6.9602 4.1465,0 7.5032,-1.2835 10.07,-3.8504 2.5669,-2.5668 4.1959,-5.7754 4.887,-9.6257 H 66.9347 V 61.6465 H 119.21 Z m 145.754,0 H 221.13 c -3.949,-5.726 -5.923,-11.847 -5.923,-18.363 V 81.9347 c 0,-1.6783 -0.593,-3.1098 -1.778,-4.2945 -1.184,-1.1847 -2.616,-1.7771 -4.294,-1.7771 H 189.587 V 122.067 H 142.791 V 3.59563 h 77.747 c 11.649,0 21.028,2.96178 28.137,8.88537 7.108,5.9235 10.662,12.9331 10.662,21.0286 0,7.6019 -1.974,14.0685 -5.923,19.3997 -3.95,5.3312 -9.281,8.836 -15.994,10.5143 2.468,0.6911 4.837,1.6784 7.108,2.9618 2.271,1.1847 4.591,2.9124 6.96,5.1831 2.37,2.172 4.246,5.0844 5.628,8.7373 1.481,3.5541 2.221,7.6019 2.221,12.1433 v 9.7739 c 0,5.529 1.876,12.143 5.627,19.844 z M 213.429,51.2803 c 1.185,-1.4809 1.778,-3.1099 1.778,-4.8869 0,-1.7771 -0.593,-3.3567 -1.778,-4.7389 -1.184,-1.4809 -2.616,-2.2213 -4.294,-2.2213 h -19.548 v 13.9204 h 19.548 c 1.678,0 3.11,-0.6911 4.294,-2.0733 z m 198.823,70.7867 h -48.573 l -5.035,-15.401 h -37.911 l -5.035,15.401 H 276.75 L 320.733,3.59563 h 46.944 z M 349.906,80.8981 339.244,49.5032 329.174,80.8981 Z m 148.338,-7.8487 h 38.651 c -1.579,15.0064 -7.503,27.4456 -17.77,37.3186 -10.268,9.774 -22.905,14.661 -37.911,14.661 -16.981,0 -31.444,-6.072 -43.39,-18.215 -11.946,-12.1436 -17.919,-26.8044 -17.919,-43.9827 0,-17.1784 5.973,-31.8392 17.919,-43.9825 11.946,-12.14331 26.409,-18.21496 43.39,-18.21496 15.006,0 27.643,4.98567 37.911,14.95696 10.267,9.8726 16.191,22.3615 17.77,37.4666 h -38.503 c -0.79,-5.3312 -2.665,-9.3296 -5.627,-11.9952 -2.962,-2.6656 -6.22,-3.9984 -9.774,-3.9984 -4.344,0 -8.096,2.1719 -11.255,6.5159 -3.159,4.3439 -4.739,10.7611 -4.739,19.2516 0,8.5891 1.531,15.0557 4.591,19.3996 3.159,4.2452 6.96,6.3679 11.403,6.3679 3.554,0 6.763,-1.2835 9.626,-3.8504 2.962,-2.6656 4.837,-6.5652 5.627,-11.699 z M 607.328,122.067 H 560.532 V 3.59563 h 46.796 z m 154.825,0 H 713.58 l -5.035,-15.401 h -37.911 l -5.035,15.401 H 626.651 L 670.634,3.59563 h 46.944 z M 699.807,80.8981 689.145,49.5032 679.075,80.8981 Z m 191.685,1.7771 c 0,5.7261 -1.086,11.0573 -3.258,15.9936 -2.073,4.9362 -5.281,9.4282 -9.625,13.4762 -4.344,3.949 -10.317,7.108 -17.919,9.478 -7.602,2.27 -16.487,3.406 -26.656,3.406 -16.487,0 -30.408,-3.653 -41.761,-10.959 -11.255,-7.404 -16.882,-17.277 -16.882,-29.6177 h 36.874 c 0.395,2.6656 1.382,4.9856 2.961,6.9602 1.679,1.8757 3.653,3.2579 5.924,4.1464 2.369,0.8886 4.541,1.5303 6.516,1.9252 2.073,0.3949 4.048,0.5924 5.924,0.5924 4.541,0 8.342,-0.543 11.402,-1.629 3.16,-1.1847 4.739,-2.9124 4.739,-5.1831 0,-1.9746 -1.333,-3.6035 -3.998,-4.887 -2.666,-1.3821 -6.121,-2.5175 -10.366,-3.406 -4.246,-0.8886 -8.935,-1.8265 -14.069,-2.8137 -5.134,-0.9873 -10.317,-2.3694 -15.549,-4.1465 -5.134,-1.8758 -9.823,-4.1465 -14.069,-6.8121 -4.245,-2.6656 -7.7,-6.3185 -10.366,-10.9586 -2.666,-4.7389 -3.998,-10.2182 -3.998,-16.4379 0,-10.8599 4.985,-20.4363 14.957,-28.7293 9.971,-8.29297 23.595,-12.43946 40.872,-12.43946 15.5,0 28.285,3.65286 38.355,10.95856 10.169,7.207 15.254,16.2898 15.254,27.2484 h -35.542 c -0.494,-3.4554 -1.826,-6.2691 -3.998,-8.441 -2.172,-2.2707 -4.394,-3.7023 -6.664,-4.2946 -2.271,-0.6911 -4.64,-1.0367 -7.109,-1.0367 -9.675,0 -14.512,2.2707 -14.512,6.8121 0,2.5669 1.678,4.5908 5.035,6.0717 3.455,1.4809 8.638,2.9124 15.549,4.2946 4.541,0.9872 8.342,1.9251 11.403,2.8137 3.06,0.7898 6.861,1.9745 11.403,3.5541 4.541,1.4809 8.293,3.2086 11.255,5.1831 3.06,1.8758 6.071,4.1959 9.033,6.9602 2.962,2.6656 5.183,5.8742 6.664,9.6258 1.481,3.6529 2.221,7.75 2.221,12.2914 z"
       id="path1" />
  </mask>
  <path
     d="m 119.21,122.067 v 8.975 h 8.975 v -8.975 z m -13.624,0 -8.0435,3.982 2.4715,4.993 h 5.572 z m -7.4045,-14.957 8.0435,-3.982 -7.1054,-14.3528 -8.5331,13.5528 z m -15.1051,13.032 3.9185,8.074 0.0478,-0.023 0.0475,-0.024 z m -64.7149,-13.328 -6.3982,6.294 0.0129,0.013 0.0131,0.013 z m 0,-87.9652 -6.3722,-6.3204 -0.0131,0.0131 -0.0129,0.0132 z m 71.6751,-11.40286 -4.1578,7.95396 0.0538,0.0281 0.0542,0.0274 z m 21.1764,18.80736 7.496,-4.9363 z m 7.997,26.8041 v 8.9751 h 8.975 v -8.9751 z m -38.503,0 h -8.9751 v 8.9751 h 8.9751 z m -4.4427,-11.4029 -6.5543,6.1314 0.0519,0.0555 0.0529,0.0546 z m -23.9904,2.0733 -7.3143,-5.2013 v 0 z m 0.2961,37.9108 -7.2718,5.2605 0.0364,0.0502 0.037,0.0498 z m 22.8057,3.1098 -6.3463,-6.3463 z m 4.887,-9.6257 8.8339,1.5855 1.8955,-10.5606 H 80.2627 Z m -13.328,0 h -8.9751 v 8.975 h 8.9751 z m 0,-13.4762 v -8.9751 h -8.9751 v 8.9751 z m 52.2753,0 h 8.975 v -8.9751 h -8.975 z m 0,51.4455 h -13.624 v 17.95 h 13.624 z m -5.581,4.993 -7.404,-14.957 -16.087,7.964 7.4045,14.957 z M 90.5865,102.328 c -2.3276,3.697 -5.9954,7.022 -11.5239,9.786 l 8.0276,16.055 c 7.8982,-3.949 14.3008,-9.311 18.6858,-16.277 z m -11.4286,9.739 c -5.502,2.67 -11.2222,3.987 -17.2583,3.987 v 17.95 c 8.7729,0 17.1705,-1.942 25.0953,-5.788 z m -17.2583,3.987 c -14.5684,0 -26.7929,-5.103 -37.1659,-15.561 l -12.7444,12.641 c 13.716,13.829 30.517,20.87 49.9103,20.87 z M 24.7596,100.52 C 14.4808,90.0709 9.41777,77.6771 9.41777,62.8313 H -8.53242 c 0,19.5108 6.88282,36.4386 20.49572,50.2767 z M 9.41777,62.8313 c 0,-14.8459 5.06303,-27.2397 15.34183,-37.6884 L 11.9633,12.5547 C -1.6496,26.3926 -8.53242,43.3204 -8.53242,62.8313 Z M 24.7337,25.1692 C 35.1067,14.7111 47.3312,9.60893 61.8996,9.60893 V -8.34126 c -19.3933,0 -36.1943,7.04116 -49.9103,20.86966 z M 61.8996,9.60893 c 8.663,0 16.6103,1.93907 23.9792,5.79097 L 94.1943,-0.508018 C 84.1874,-5.73891 73.3768,-8.34126 61.8996,-8.34126 Z m 24.0872,5.84647 c 7.4127,3.748 13.2747,8.9674 17.7312,15.7341 L 118.709,21.317 C 112.503,11.8927 104.247,4.57382 94.0863,-0.563549 Z m 17.7312,15.7341 c 4.357,6.6172 6.517,13.8331 6.517,21.8679 h 17.95 c 0,-11.513 -3.171,-22.1665 -9.476,-31.7404 z M 119.21,44.0823 H 80.707 v 17.9502 h 38.503 z m -29.5279,8.9751 c 0,-6.7005 -2.2719,-12.7914 -6.9683,-17.6444 l -12.899,12.483 c 1.2271,1.2681 1.9171,2.7791 1.9171,5.1614 z M 82.8185,35.5231 c -4.6288,-4.948 -10.639,-7.4344 -17.3647,-7.4344 v 17.9502 c 1.9622,0 3.1589,0.5741 4.2562,1.747 z M 65.4538,28.0887 c -8.4214,0 -15.5879,3.5383 -20.4942,10.4378 L 59.5882,48.929 c 1.4121,-1.9858 3.0322,-2.8901 5.8656,-2.8901 z M 44.9596,38.5265 C 40.29,45.0931 38.5599,53.587 38.5599,62.8313 h 17.9502 c 0,-7.3418 1.4292,-11.5835 3.0781,-13.9023 z m -6.3997,24.3048 c 0,9.0874 1.9248,17.4138 6.7383,24.0678 L 59.8419,76.3781 C 57.942,73.7518 56.5101,69.54 56.5101,62.8313 Z m 6.8117,24.1678 c 4.8612,6.5278 11.6135,10.5748 19.9341,10.5748 V 79.6237 c -1.7494,0 -3.4876,-0.5932 -5.5373,-3.3456 z m 19.9341,10.5748 c 6.1589,0 11.9229,-1.9856 16.4164,-6.4791 L 69.0294,78.4021 c -0.6403,0.6403 -1.5896,1.2216 -3.7237,1.2216 z m 16.4164,-6.4791 c 3.9646,-3.9646 6.3861,-8.8799 7.3745,-14.3866 L 71.4288,73.5371 c -0.3938,2.1939 -1.2302,3.6958 -2.3994,4.865 z M 80.2627,66.1476 h -13.328 v 17.9501 h 13.328 z m -4.3529,8.9751 V 61.6465 H 57.9596 V 75.1227 Z M 66.9347,70.6216 H 119.21 V 52.6714 H 66.9347 Z m 43.3003,-8.9751 v 60.4205 h 17.95 V 61.6465 Z m 154.729,60.4205 v 8.975 h 14.356 l -6.287,-12.906 z m -43.834,0 -7.388,5.095 2.675,3.88 h 4.713 z m -7.701,-44.4268 -6.346,6.3463 v 0 z M 189.587,75.8631 V 66.888 h -8.975 v 8.9751 z m 0,46.2039 v 8.975 h 8.975 v -8.975 z m -46.796,0 h -8.975 v 8.975 h 8.975 z m 0,-118.47137 v -8.9751 h -8.975 v 8.9751 z M 248.675,12.481 254.42,5.58612 v -1e-5 z m 4.739,40.4283 7.212,5.3422 v 0 z m -15.994,10.5143 -2.177,-8.7071 -32.864,8.216 32.621,9.1338 z m 7.108,2.9618 -4.416,7.8134 0.131,0.0741 0.134,0.0697 z m 6.96,5.1831 -6.21,6.4799 0.072,0.0689 0.074,0.0672 z m 5.628,8.7373 -8.395,3.1762 0.053,0.1388 0.057,0.1369 z m -43.687,-29.0255 6.815,5.8409 0.099,-0.1154 0.095,-0.1188 z m 0,-9.6258 -7.008,5.6067 0.095,0.1188 0.099,0.1154 z m -23.842,-2.2213 v -8.9751 h -8.975 v 8.9751 z m 0,13.9204 h -8.975 v 8.9751 h 8.975 z m 75.377,59.7384 H 221.13 v 17.95 h 43.834 z m -36.445,3.879 c -2.99,-4.334 -4.337,-8.697 -4.337,-13.267 h -17.951 c 0,8.461 2.602,16.341 7.511,23.458 z m -4.337,-13.267 V 81.9348 h -17.951 v 21.7692 z m 0,-21.7692 c 0,-4.0541 -1.535,-7.7698 -4.406,-10.641 l -12.693,12.6927 c -0.173,-0.1733 -0.423,-0.4921 -0.614,-0.9525 -0.19,-0.4601 -0.238,-0.8598 -0.238,-1.0992 z m -4.406,-10.641 c -2.871,-2.8711 -6.587,-4.4058 -10.641,-4.4058 v 17.9502 c -0.24,0 -0.639,-0.0473 -1.099,-0.2377 -0.461,-0.1905 -0.78,-0.4407 -0.953,-0.614 z M 209.135,66.888 h -19.548 v 17.9502 h 19.548 z m -28.523,8.9751 v 46.2039 h 17.95 V 75.8631 Z m 8.975,37.2289 h -46.796 v 17.95 h 46.796 z m -37.821,8.975 V 3.59563 h -17.95 V 122.067 Z M 142.791,12.5707 h 77.747 V -5.37947 h -77.747 z m 77.747,0 c 10.108,0 17.278,2.5443 22.391,6.8051 L 254.42,5.58611 C 245.317,-2.00016 233.729,-5.37947 220.538,-5.37947 Z m 22.391,6.8051 c 5.39,4.4914 7.433,9.1009 7.433,14.1338 h 17.95 c 0,-11.1581 -5.065,-20.5677 -13.892,-27.92348 z m 7.433,14.1338 c 0,5.9704 -1.519,10.4914 -4.16,14.0575 l 14.424,10.6844 c 5.256,-7.0963 7.686,-15.5084 7.686,-24.7419 z m -4.16,14.0575 c -2.655,3.5838 -6.169,5.9519 -10.959,7.1494 l 4.354,17.4142 c 8.637,-2.1592 15.785,-6.8006 21.029,-13.8792 z M 235,72.0663 c 1.759,0.4927 3.46,1.1986 5.112,2.1325 l 8.832,-15.6268 c -2.889,-1.633 -5.927,-2.9016 -9.104,-3.7911 z m 5.377,2.2763 c 1.341,0.6998 2.982,1.8663 4.901,3.7058 l 12.42,-12.9598 c -2.819,-2.7019 -5.818,-4.9908 -9.018,-6.6604 z m 5.047,3.8419 c 1.135,1.0408 2.307,2.6791 3.297,5.2975 l 16.789,-6.3524 c -1.774,-4.6873 -4.353,-8.8739 -7.957,-12.1771 z m 3.407,5.5732 c 0.951,2.2825 1.531,5.1257 1.531,8.6914 h 17.95 c 0,-5.5171 -0.901,-10.7695 -2.912,-15.5953 z m 1.531,8.6914 v 9.7739 h 17.95 v -9.7739 z m 0,9.7739 c 0,7.435 2.482,15.457 6.534,23.775 l 16.137,-7.862 c -3.451,-7.083 -4.721,-12.29 -4.721,-15.913 z M 220.438,56.887 c 2.366,-2.9575 3.744,-6.5363 3.744,-10.4936 h -17.951 c 0,-0.1307 0.026,-0.3192 0.097,-0.5127 0.067,-0.1863 0.132,-0.2559 0.093,-0.2071 z m 3.744,-10.4936 c 0,-3.9761 -1.396,-7.6144 -3.938,-10.5798 l -13.629,11.6818 c -0.036,-0.0424 -0.156,-0.2004 -0.256,-0.4682 -0.102,-0.2708 -0.128,-0.5042 -0.128,-0.6338 z m -3.744,-10.3456 c -2.638,-3.2967 -6.521,-5.5897 -11.303,-5.5897 v 17.9502 c -0.534,0 -1.179,-0.1313 -1.791,-0.4479 -0.581,-0.3004 -0.867,-0.6293 -0.923,-0.6992 z m -11.303,-5.5897 h -19.548 v 17.9502 h 19.548 z m -28.523,8.9751 v 13.9204 h 17.95 V 39.4332 Z m 8.975,22.8955 h 19.548 V 44.3785 h -19.548 z m 19.548,0 c 4.539,0 8.382,-2.0266 11.109,-5.2075 L 206.615,45.4394 c 0.097,-0.1132 0.4,-0.4212 0.95,-0.6867 0.569,-0.2746 1.135,-0.3742 1.57,-0.3742 z m 203.117,59.7383 v 8.975 h 12.966 l -4.566,-12.136 z m -48.573,0 -8.531,2.789 2.022,6.186 h 6.509 z m -5.035,-15.401 8.53,-2.789 -2.022,-6.1865 h -6.508 z m -37.911,0 v -8.9755 h -6.509 l -2.022,6.1865 z m -5.035,15.401 v 8.975 h 6.508 l 2.022,-6.186 z m -38.948,0 -8.414,-3.124 -4.491,12.099 H 276.75 Z M 320.733,3.59563 v -8.9751 h -6.242 l -2.172,5.851409 z m 46.944,0 8.4,-3.160571 -2.188,-5.814529 h -6.212 z M 349.906,80.8981 v 8.9751 h 12.527 L 358.405,78.0119 Z M 339.244,49.5032 347.742,46.617 339,20.8771 330.698,46.762 Z m -10.07,31.3949 -8.546,-2.7412 -3.758,11.7163 h 12.304 z m 83.078,32.1939 h -48.573 v 17.95 h 48.573 z m -40.043,6.186 -5.035,-15.401 -17.061,5.578 5.035,15.401 z M 358.644,97.6905 h -37.911 v 17.9505 h 37.911 z m -46.442,6.1865 -5.035,15.401 17.061,5.578 5.036,-15.401 z m 3.496,9.215 H 276.75 v 17.95 h 38.948 z M 285.164,125.191 329.147,6.71931 312.319,0.471939 268.336,118.943 Z M 320.733,12.5707 h 46.944 V -5.37947 h -46.944 z m 38.544,-5.8145 44.575,118.4708 16.8,-6.321 L 376.077,0.435059 Z m -0.872,71.2557 -10.663,-31.3949 -16.996,5.7725 10.662,31.3949 z m -27.707,-31.2499 -10.07,31.3949 17.092,5.4825 10.07,-31.3949 z m -1.524,43.1112 h 20.732 V 71.923 h -20.732 z m 169.07,-16.8238 v -8.9751 h -7.7 l -1.171,7.6104 z m 38.651,0 8.926,0.9396 1.044,-9.9147 h -9.97 z m -17.77,37.3186 6.188,6.501 0.016,-0.016 0.016,-0.016 z m -81.301,-3.554 6.398,-6.294 z m 81.301,-91.2232 -6.253,6.4386 0.016,0.0155 0.016,0.0155 z m 17.77,37.4666 v 8.9751 h 9.963 l -1.036,-9.9086 z m -38.503,0 -8.878,1.3153 1.135,7.6598 h 7.743 z m -5.627,-11.9952 6.004,-6.6712 z m -21.029,2.5175 -7.258,-5.2789 v 0 z m -0.148,38.6512 -7.337,5.1693 0.067,0.0953 0.07,0.0937 z m 21.029,2.5175 5.991,6.6826 0.006,-0.0057 0.007,-0.0057 z m 5.627,-2.7239 h 38.651 V 64.0743 h -38.651 z m 29.726,-9.9147 c -1.373,13.037 -6.419,23.4742 -15.066,31.7882 l 12.441,12.939 c 11.889,-11.431 18.689,-25.8723 20.476,-42.848 z m -15.033,31.7572 c -8.495,8.086 -18.872,12.187 -31.723,12.187 v 17.95 c 17.161,0 32.058,-5.673 44.099,-17.135 z m -31.723,12.187 c -14.567,0 -26.727,-5.1 -36.992,-15.534 l -12.796,12.588 c 13.627,13.852 30.393,20.896 49.788,20.896 z M 444.222,100.52 C 433.943,90.0709 428.88,77.6771 428.88,62.8313 h -17.95 c 0,19.5108 6.883,36.4386 20.496,50.2767 z M 428.88,62.8313 c 0,-14.8459 5.063,-27.2397 15.342,-37.6884 L 431.426,12.5547 C 417.813,26.3926 410.93,43.3204 410.93,62.8313 Z M 444.222,25.1429 C 454.487,14.7086 466.647,9.60893 481.214,9.60893 V -8.34126 c -19.395,0 -36.161,7.04363 -49.788,20.89596 z M 481.214,9.60893 c 12.797,0 23.153,4.16117 31.658,12.42047 L 525.378,9.15231 C 513.347,-2.53104 498.43,-8.34126 481.214,-8.34126 Z m 31.69,12.45147 c 8.635,8.3026 13.69,18.7814 15.065,31.9305 l 17.853,-1.867 c -1.784,-17.0611 -8.576,-31.56 -20.477,-43.00261 z m 23.991,22.0219 h -38.503 v 17.9502 h 38.503 z m -29.625,7.6598 c -0.987,-6.6682 -3.517,-12.865 -8.501,-17.3511 l -12.008,13.3423 c 0.939,0.8451 2.161,2.6452 2.753,6.6394 z M 498.769,34.391 c -4.395,-3.9556 -9.734,-6.3023 -15.778,-6.3023 v 17.9502 c 1.064,0 2.241,0.3188 3.77,1.6944 z m -15.778,-6.3023 c -7.899,0 -14.112,4.1607 -18.513,10.2121 l 14.517,10.5578 c 1.917,-2.6365 3.207,-2.8197 3.996,-2.8197 z m -18.513,10.2121 c -4.755,6.5372 -6.456,15.1647 -6.456,24.5305 h 17.95 c 0,-7.6152 1.459,-11.822 3.023,-13.9727 z m -6.456,24.5305 c 0,9.3954 1.628,18.0378 6.229,24.5689 l 14.674,-10.3385 c -1.52,-2.1569 -2.953,-6.4475 -2.953,-14.2304 z m 6.366,24.7579 c 4.488,6.0302 10.763,9.9847 18.603,9.9847 V 79.6237 c -1.045,0 -2.372,-0.2908 -4.203,-2.751 z m 18.603,9.9847 c 5.954,0 11.254,-2.2311 15.617,-6.1429 L 486.625,78.0659 c -1.363,1.222 -2.48,1.5578 -3.634,1.5578 z m 15.63,-6.1543 c 4.915,-4.4236 7.486,-10.4537 8.494,-17.0055 l -17.742,-2.7294 c -0.571,3.7157 -1.752,5.485 -2.76,6.3926 z m 108.707,30.6474 v 8.975 h 8.975 v -8.975 z m -46.796,0 h -8.975 v 8.975 h 8.975 z m 0,-118.47137 v -8.9751 h -8.975 v 8.9751 z m 46.796,0 h 8.975 v -8.9751 h -8.975 z m 0,109.49637 h -46.796 v 17.95 h 46.796 z m -37.821,8.975 V 3.59563 h -17.95 V 122.067 Z M 560.532,12.5707 h 46.796 V -5.37947 H 560.532 Z M 598.353,3.59563 V 122.067 h 17.95 V 3.59563 Z m 163.8,118.47137 v 8.975 h 12.966 l -4.566,-12.136 z m -48.573,0 -8.531,2.789 2.022,6.186 h 6.509 z m -5.036,-15.401 8.531,-2.789 -2.022,-6.1865 h -6.509 z m -37.91,0 v -8.9755 h -6.509 l -2.022,6.1865 z m -5.035,15.401 v 8.975 h 6.508 l 2.022,-6.186 z m -38.948,0 -8.414,-3.124 -4.491,12.099 h 12.905 z M 670.634,3.59563 v -8.9751 h -6.242 l -2.172,5.851409 z m 46.944,0 8.4,-3.160571 -2.188,-5.814529 h -6.212 z M 699.807,80.8981 v 8.9751 h 12.527 l -4.028,-11.8613 z m -10.662,-31.3949 8.498,-2.8862 -8.742,-25.7399 -8.302,25.8849 z m -10.07,31.3949 -8.546,-2.7412 -3.758,11.7163 h 12.304 z m 83.078,32.1939 H 713.58 v 17.95 h 48.573 z m -40.043,6.186 -5.035,-15.401 -17.061,5.578 5.035,15.401 z M 708.544,97.6905 h -37.91 v 17.9505 h 37.91 z m -46.441,6.1865 -5.035,15.401 17.061,5.578 5.035,-15.401 z m 3.496,9.215 h -38.948 v 17.95 h 38.948 z M 635.065,125.191 679.048,6.71931 662.22,0.471939 618.237,118.943 Z M 670.634,12.5707 h 46.944 V -5.37947 h -46.944 z m 38.544,-5.8145 44.575,118.4708 16.8,-6.321 L 725.978,0.435059 Z m -0.872,71.2557 -10.663,-31.3949 -16.997,5.7725 10.663,31.3949 z m -27.707,-31.2499 -10.07,31.3949 17.092,5.4825 10.07,-31.3949 z m -1.524,43.1112 h 20.732 V 71.923 h -20.732 z m 209.159,8.7956 -8.215,-3.6146 -0.03,0.0693 -0.029,0.0699 z m -9.625,13.4762 6.037,6.641 0.041,-0.037 0.04,-0.038 z m -17.919,9.478 2.569,8.599 0.051,-0.015 0.051,-0.016 z m -68.417,-7.553 -4.933,7.498 0.038,0.025 0.038,0.025 z M 775.391,84.4523 v -8.9751 h -8.976 v 8.9751 z m 36.874,0 8.878,-1.3153 -1.135,-7.6598 h -7.743 z m 2.962,6.9601 -7.009,5.6067 0.155,0.1934 0.165,0.1845 z m 5.923,4.1465 -3.27,8.3581 0.059,0.023 0.06,0.023 z m 6.516,1.9252 -1.76,8.8009 0.04,0.008 0.041,0.008 z m 17.326,-1.0366 3.002,8.4585 0.075,-0.027 0.075,-0.028 z m 0.741,-10.0701 -4.132,7.9677 0.118,0.0612 0.12,0.0577 z m -10.366,-3.406 -1.839,8.7847 v 0 z m -14.069,-2.8137 1.695,-8.8136 z m -15.549,-4.1465 -3.08,8.43 0.096,0.0353 0.098,0.033 z m -14.069,-6.8121 4.773,-7.6009 z m -10.366,-10.9586 -7.822,4.4001 0.019,0.0354 0.021,0.0352 z m 10.959,-45.1672 -5.739,-6.90043 z m 79.227,-1.4809 -5.27,7.2647 0.04,0.0291 0.041,0.0287 z m 15.253,27.2484 v 8.9751 h 8.976 v -8.9751 z m -35.541,0 -8.885,1.2693 1.101,7.7058 h 7.784 z m -3.998,-8.4411 -6.486,6.2038 0.069,0.0721 0.07,0.0705 z m -6.664,-4.2945 -2.613,8.5862 0.172,0.0526 0.175,0.0456 z m -16.586,11.8471 -3.623,8.2115 0.044,0.0192 0.043,0.0187 z m 15.549,4.2946 1.907,-8.7703 -0.073,-0.0159 -0.074,-0.0146 z m 11.403,2.8137 -2.502,8.6192 0.129,0.0375 0.13,0.0336 z m 11.403,3.5541 -2.949,8.477 0.083,0.0287 0.083,0.0272 z m 11.255,5.1831 -4.979,7.4678 0.143,0.0949 0.146,0.0895 z m 9.033,6.9602 -6.124,6.5613 0.06,0.0555 0.06,0.0543 z m 6.664,9.6258 -8.348,3.2954 0.015,0.0383 0.015,0.0383 z m -6.754,12.2914 c 0,4.5598 -0.857,8.6513 -2.498,12.379 l 16.43,7.2288 c 2.704,-6.1445 4.018,-12.7153 4.018,-19.6078 z m -2.557,12.5182 c -1.531,3.643 -3.953,7.1086 -7.47,10.3856 l 12.237,13.132 c 5.172,-4.819 9.166,-10.337 11.782,-16.567 z m -7.389,10.3106 c -3.095,2.814 -7.778,5.439 -14.552,7.55 l 5.342,17.137 c 8.43,-2.627 15.692,-6.321 21.285,-11.405 z m -14.45,7.519 c -6.572,1.963 -14.557,3.031 -24.087,3.031 v 17.95 c 10.807,0 20.593,-1.203 29.225,-3.782 z m -24.087,3.031 c -15.148,0 -27.291,-3.345 -36.905,-9.531 l -9.713,15.095 c 13.094,8.425 28.791,12.386 46.618,12.386 z m -36.828,-9.482 c -9.006,-5.925 -12.84,-13.1133 -12.84,-22.1197 h -17.951 c 0,15.6747 7.421,28.2317 20.925,37.1157 z M 775.391,93.4274 h 36.874 V 75.4772 h -36.874 z m 27.995,-7.6598 c 0.612,4.1293 2.195,7.9553 4.832,11.2515 l 14.017,-11.2133 c -0.522,-0.6529 -0.914,-1.4669 -1.092,-2.6688 z m 5.152,11.6294 c 2.585,2.889 5.718,5.102 9.342,6.52 l 6.541,-16.716 c -0.919,-0.3593 -1.734,-0.9103 -2.506,-1.7731 z m 9.461,6.566 c 2.712,1.017 5.356,1.812 7.907,2.322 l 3.52,-17.6017 c -1.399,-0.2798 -3.098,-0.7681 -5.125,-1.528 z m 7.988,2.338 c 2.559,0.487 5.098,0.751 7.603,0.751 V 89.1014 c -1.248,0 -2.657,-0.1316 -4.245,-0.4339 z m 7.603,0.751 c 5.188,0 10.08,-0.612 14.404,-2.146 l -6.003,-16.9169 c -1.797,0.6376 -4.507,1.1123 -8.401,1.1123 z m 14.554,-2.201 c 4.654,-1.745 10.562,-5.8105 10.562,-13.5866 h -17.95 c 0,-0.4969 0.091,-1.0881 0.332,-1.6965 0.238,-0.604 0.558,-1.058 0.835,-1.3609 0.493,-0.5401 0.716,-0.4624 -0.082,-0.1632 z m 10.562,-13.5866 c 0,-7.0055 -5.049,-11.0327 -9.08,-12.9736 l -7.787,16.1732 c 0.6,0.2885 0.375,0.3055 -0.054,-0.2189 -0.236,-0.2887 -0.512,-0.7168 -0.721,-1.2834 -0.213,-0.574 -0.308,-1.1584 -0.308,-1.6973 z m -8.842,-12.8547 c -3.631,-1.8831 -7.937,-3.2347 -12.659,-4.2231 l -3.677,17.5695 c 3.768,0.7887 6.374,1.7078 8.073,2.589 z m -12.659,-4.2231 c -4.301,-0.9003 -9.04,-1.8478 -14.212,-2.8425 l -3.39,17.6272 c 5.095,0.9798 9.736,1.9081 13.925,2.7848 z m -14.212,-2.8425 c -4.708,-0.9053 -9.493,-2.179 -14.358,-3.8313 l -5.772,16.9967 c 5.599,1.9019 11.18,3.3926 16.74,4.4618 z m -14.164,-3.7629 c -4.595,-1.6789 -8.71,-3.681 -12.376,-5.983 L 786.908,76.8 c 4.824,3.0292 10.088,5.5685 15.761,7.6412 z m -12.376,-5.983 c -2.917,-1.8318 -5.372,-4.3738 -7.357,-7.8284 l -15.564,8.9414 c 3.346,5.8256 7.802,10.5894 13.376,14.0888 z m -7.316,-7.7578 c -1.807,-3.2123 -2.846,-7.1346 -2.846,-12.0378 h -17.95 c 0,7.5363 1.626,14.5726 5.151,20.838 z m -2.846,-12.0378 c 0,-7.6692 3.359,-14.8749 11.721,-21.8288 L 786.534,6.17287 C 774.952,15.805 768.341,27.7521 768.341,41.8026 Z M 798.012,19.9738 C 805.904,13.41 817.264,9.60893 833.145,9.60893 V -8.34126 c -18.673,0 -34.561,4.4919 -46.611,14.51413 z M 833.145,9.60893 c 14.078,0 24.889,3.30217 33.085,9.24817 L 876.771,4.32779 C 864.826,-4.33767 850.067,-8.34126 833.145,-8.34126 Z m 33.166,9.30597 c 8.171,5.7912 11.467,12.3104 11.467,19.9259 h 17.951 c 0,-14.3017 -6.872,-25.948 -19.039,-34.57087 z m 20.442,10.9508 h -35.541 v 17.9502 h 35.541 z m -26.656,7.7059 c -0.729,-5.1038 -2.808,-9.7894 -6.537,-13.5182 l -12.693,12.6927 c 0.615,0.6151 1.202,1.5569 1.46,3.364 z M 853.7,24.196 c -2.944,-3.077 -6.546,-5.6435 -10.885,-6.7753 l -4.531,17.3689 c 0.203,0.053 1.043,0.3495 2.444,1.8139 z m -10.537,-6.6771 c -3.151,-0.959 -6.403,-1.4255 -9.722,-1.4255 v 17.9502 c 1.619,0 3.105,0.2247 4.496,0.6478 z m -9.722,-1.4255 c -5.255,0 -10.476,0.5719 -14.698,2.5536 -2.227,1.0455 -4.508,2.6384 -6.225,5.0568 -1.778,2.5032 -2.564,5.35 -2.564,8.1768 h 17.95 c 0,0.5562 -0.182,1.4161 -0.751,2.2163 -0.508,0.7153 -0.974,0.8891 -0.783,0.7993 0.213,-0.1 0.845,-0.3369 2.109,-0.5347 1.238,-0.1936 2.872,-0.3179 4.962,-0.3179 z m -23.487,15.7872 c 0,7.6133 5.404,12.0849 10.387,14.2832 l 7.245,-16.423 c -0.878,-0.3877 -0.819,-0.5428 -0.49,-0.1462 0.185,0.2232 0.409,0.5681 0.577,1.0277 0.169,0.4624 0.231,0.9022 0.231,1.2583 z m 10.474,14.3211 c 4.324,1.8529 10.235,3.428 17.325,4.846 l 3.52,-17.6016 c -6.732,-1.3464 -11.186,-2.6343 -13.774,-3.7432 z m 17.179,4.8154 c 4.422,0.9615 8.01,1.8506 10.807,2.6627 l 5.004,-17.2384 c -3.324,-0.965 -7.338,-1.9517 -11.998,-2.9648 z m 11.066,2.7338 c 2.734,0.7056 6.282,1.805 10.697,3.3408 l 5.897,-16.9539 c -4.667,-1.6235 -8.721,-2.8936 -12.108,-3.7676 z m 10.863,3.3967 c 4.011,1.308 6.964,2.7213 9.059,4.118 l 9.957,-14.9355 c -3.828,-2.5524 -8.379,-4.5945 -13.451,-6.2483 z m 9.348,4.3024 c 2.486,1.524 5.022,3.4642 7.599,5.8693 l 12.248,-13.1226 c -3.347,-3.1236 -6.833,-5.8235 -10.467,-8.0511 z m 7.719,5.9791 c 1.917,1.7252 3.342,3.7735 4.32,6.2501 l 16.696,-6.5908 c -1.984,-5.0266 -5.001,-9.3954 -9.008,-13.0015 z m 4.35,6.3267 c 0.986,2.4314 1.564,5.3598 1.564,8.9194 h 17.95 c 0,-5.5232 -0.902,-10.7891 -2.878,-15.6634 z"
     fill="#ed64a6"
     mask="url(#path-1-outside-1_47_348)"
     id="path2"
     transform="translate(8.53242,8.34126)" />
</svg>
