<?xml version="1.0" encoding="UTF-8" standalone="no"?>
<svg
   width="896.43488"
   height="129.77959"
   viewBox="0 0 896.43488 129.77959"
   fill="none"
   version="1.1"
   id="svg3"
   sodipodi:docname="GRACIAS 1.svg"
   inkscape:version="1.3.2 (091e20e, 2023-11-25, custom)"
   xmlns:inkscape="http://www.inkscape.org/namespaces/inkscape"
   xmlns:sodipodi="http://sodipodi.sourceforge.net/DTD/sodipodi-0.dtd"
   xmlns="http://www.w3.org/2000/svg"
   xmlns:svg="http://www.w3.org/2000/svg">
  <defs
     id="defs3" />
  <sodipodi:namedview
     id="namedview3"
     pagecolor="#ffffff"
     bordercolor="#000000"
     borderopacity="0.25"
     inkscape:showpageshadow="2"
     inkscape:pageopacity="0.0"
     inkscape:pagecheckerboard="0"
     inkscape:deskcolor="#d1d1d1"
     inkscape:zoom="2.7111045"
     inkscape:cx="89.44694"
     inkscape:cy="41.864857"
     inkscape:window-width="1366"
     inkscape:window-height="697"
     inkscape:window-x="-8"
     inkscape:window-y="-8"
     inkscape:window-maximized="1"
     inkscape:current-layer="svg3" />
  <mask
     id="path-1-outside-1_47_372"
     maskUnits="userSpaceOnUse"
     x="-3"
     y="-3"
     width="898"
     height="131"
     fill="#000000">
    <rect
       fill="#ffffff"
       x="-3"
       y="-3"
       width="898"
       height="131"
       id="rect1" />
    <path
       d="m 119.21,122 h -13.624 l -7.4045,-14.957 c -3.3567,5.331 -8.3917,9.675 -15.1051,13.032 -6.7134,3.258 -13.7723,4.887 -21.1768,4.887 -16.9808,0 -31.4936,-6.072 -43.5381,-18.215 C 6.4156,94.6035 0.442673,79.9427 0.442673,62.7644 0.442673,45.586 6.4156,30.9252 18.3615,18.7819 30.406,6.6386 44.9188,0.566946 61.8996,0.566946 c 10.0701,0 19.4491,2.270704 28.137,6.812094 8.7866,4.44266 15.8454,10.71176 21.1764,18.80736 5.332,8.0955 7.997,17.0302 7.997,26.8041 H 80.707 c 0,-4.5414 -1.4809,-8.3424 -4.4427,-11.4029 -2.8631,-3.0605 -6.4666,-4.5907 -10.8105,-4.5907 -5.6274,0 -10.0207,2.2213 -13.1799,6.664 -3.1593,4.4426 -4.7389,10.8105 -4.7389,19.1035 0,7.898 1.6783,14.1672 5.035,18.8073 3.4554,4.6401 7.7007,6.9602 12.7357,6.9602 4.1465,0 7.5032,-1.2835 10.07,-3.8503 2.5669,-2.5669 4.1959,-5.7755 4.887,-9.6258 H 66.9347 V 61.5797 H 119.21 Z m 145.754,0 H 221.13 c -3.949,-5.726 -5.923,-11.847 -5.923,-18.363 V 81.8679 c 0,-1.6784 -0.593,-3.1099 -1.778,-4.2946 -1.184,-1.1847 -2.616,-1.7771 -4.294,-1.7771 H 189.587 V 122 H 142.791 V 3.52873 h 77.747 c 11.649,0 21.028,2.96179 28.137,8.88537 7.108,5.9235 10.662,12.9331 10.662,21.0286 0,7.6019 -1.974,14.0685 -5.923,19.3997 -3.95,5.3312 -9.281,8.836 -15.994,10.5143 2.468,0.6911 4.837,1.6784 7.108,2.9618 2.271,1.1847 4.591,2.9124 6.96,5.1831 2.37,2.172 4.246,5.0844 5.628,8.7373 1.481,3.5541 2.221,7.6019 2.221,12.1433 v 9.7738 c 0,5.529 1.876,12.143 5.627,19.844 z M 213.429,51.2134 c 1.185,-1.4809 1.778,-3.1099 1.778,-4.8869 0,-1.7771 -0.593,-3.3567 -1.778,-4.7389 -1.184,-1.4809 -2.616,-2.2213 -4.294,-2.2213 h -19.548 v 13.9204 h 19.548 c 1.678,0 3.11,-0.6911 4.294,-2.0733 z M 412.252,122 h -48.573 l -5.035,-15.401 H 320.733 L 315.698,122 H 276.75 L 320.733,3.52873 h 46.944 z M 349.906,80.8312 339.244,49.4363 329.174,80.8312 Z m 148.338,-7.8487 h 38.651 c -1.579,15.0064 -7.503,27.4455 -17.77,37.3185 -10.268,9.774 -22.905,14.661 -37.911,14.661 -16.981,0 -31.444,-6.072 -43.39,-18.215 -11.946,-12.1435 -17.919,-26.8043 -17.919,-43.9826 0,-17.1784 5.973,-31.8392 17.919,-43.9825 11.946,-12.1433 26.409,-18.214954 43.39,-18.214954 15.006,0 27.643,4.985664 37.911,14.956954 10.267,9.8727 16.191,22.3615 17.77,37.4666 h -38.503 c -0.79,-5.3312 -2.665,-9.3296 -5.627,-11.9952 -2.962,-2.6656 -6.22,-3.9984 -9.774,-3.9984 -4.344,0 -8.096,2.1719 -11.255,6.5159 -3.159,4.3439 -4.739,10.7611 -4.739,19.2516 0,8.5891 1.531,15.0557 4.591,19.3996 3.159,4.2453 6.96,6.3679 11.403,6.3679 3.554,0 6.763,-1.2835 9.626,-3.8503 2.962,-2.6657 4.837,-6.5653 5.627,-11.6991 z M 607.328,122 H 560.532 V 3.52873 h 46.796 z m 154.825,0 H 713.58 l -5.035,-15.401 H 670.634 L 665.599,122 H 626.651 L 670.634,3.52873 h 46.944 z M 699.807,80.8312 689.145,49.4363 679.075,80.8312 Z m 191.685,1.7771 c 0,5.7261 -1.086,11.0573 -3.258,15.9936 -2.073,4.9361 -5.281,9.4281 -9.625,13.4761 -4.344,3.949 -10.317,7.108 -17.919,9.478 -7.602,2.27 -16.487,3.406 -26.656,3.406 -16.487,0 -30.408,-3.653 -41.761,-10.959 -11.255,-7.404 -16.882,-17.2769 -16.882,-29.6176 h 36.874 c 0.395,2.6656 1.382,4.9856 2.961,6.9602 1.679,1.8758 3.653,3.2579 5.924,4.1465 2.369,0.8885 4.541,1.5302 6.516,1.9251 2.073,0.3949 4.048,0.5924 5.924,0.5924 4.541,0 8.342,-0.543 11.402,-1.629 3.16,-1.1847 4.739,-2.9124 4.739,-5.1831 0,-1.9746 -1.333,-3.6035 -3.998,-4.887 -2.666,-1.3821 -6.121,-2.5175 -10.366,-3.406 -4.246,-0.8886 -8.935,-1.8265 -14.069,-2.8137 -5.134,-0.9873 -10.317,-2.3694 -15.549,-4.1465 -5.134,-1.8758 -9.823,-4.1465 -14.069,-6.8121 -4.245,-2.6656 -7.7,-6.3185 -10.366,-10.9586 -2.666,-4.7388 -3.998,-10.2181 -3.998,-16.4379 0,-10.8599 4.985,-20.4363 14.957,-28.7293 9.971,-8.29296 23.595,-12.439454 40.872,-12.439454 15.5,0 28.285,3.652864 38.355,10.958554 10.169,7.207 15.254,16.2898 15.254,27.2484 h -35.542 c -0.494,-3.4554 -1.826,-6.2691 -3.998,-8.441 -2.172,-2.2707 -4.394,-3.7023 -6.664,-4.2946 -2.271,-0.6911 -4.64,-1.0367 -7.109,-1.0367 -9.675,0 -14.512,2.2707 -14.512,6.8121 0,2.5669 1.678,4.5908 5.035,6.0717 3.455,1.4809 8.638,2.9124 15.549,4.2946 4.541,0.9872 8.342,1.9251 11.403,2.8137 3.06,0.7898 6.861,1.9745 11.403,3.5541 4.541,1.4809 8.293,3.2086 11.255,5.1831 3.06,1.8758 6.071,4.1959 9.033,6.9602 2.962,2.6656 5.183,5.8742 6.664,9.6258 1.481,3.6529 2.221,7.75 2.221,12.2914 z"
       id="path1" />
  </mask>
  <path
     d="m 121.45986,124.12558 h -13.624 l -7.4045,-14.957 c -3.3567,5.331 -8.3917,9.675 -15.1051,13.032 -6.7134,3.258 -13.7723,4.887 -21.1768,4.887 -16.9808,0 -31.4936,-6.072 -43.5381,-18.215 C 8.66546,96.72908 2.692533,82.06828 2.692533,64.88998 c 0,-17.1784 5.972927,-31.8392 17.918827,-43.9825 12.0445,-12.1433 26.5573,-18.214954 43.5381,-18.214954 10.0701,0 19.4491,2.270704 28.137,6.812094 8.7866,4.44266 15.8454,10.71176 21.1764,18.80736 5.332,8.0955 7.997,17.0302 7.997,26.8041 h -38.503 c 0,-4.5414 -1.4809,-8.3424 -4.4427,-11.4029 -2.8631,-3.0605 -6.4666,-4.5907 -10.8105,-4.5907 -5.6274,0 -10.0207,2.2213 -13.1799,6.664 -3.1593,4.4426 -4.7389,10.8105 -4.7389,19.1035 0,7.898 1.6783,14.1672 5.035,18.8073 3.4554,4.6401 7.7007,6.9602 12.7357,6.9602 4.1465,0 7.5032,-1.2835 10.07,-3.8503 2.5669,-2.5669 4.1959,-5.7755 4.887,-9.6258 h -13.328 v -13.4761 h 52.2753 z m 145.754,0 h -43.834 c -3.949,-5.726 -5.923,-11.847 -5.923,-18.363 v -21.7691 c 0,-1.6784 -0.593,-3.1099 -1.778,-4.2946 -1.184,-1.1847 -2.616,-1.7771 -4.294,-1.7771 h -19.548 v 46.2038 h -46.796 V 5.65431 h 77.747 c 11.649,0 21.028,2.96179 28.137,8.88537 7.108,5.9235 10.662,12.9331 10.662,21.0286 0,7.6019 -1.974,14.0685 -5.923,19.3997 -3.95,5.3312 -9.281,8.836 -15.994,10.5143 2.468,0.6911 4.837,1.6784 7.108,2.9618 2.271,1.1847 4.591,2.9124 6.96,5.1831 2.37,2.172 4.246,5.0844 5.628,8.7373 1.481,3.5541 2.221,7.6019 2.221,12.1433 v 9.7738 c 0,5.529 1.876,12.143 5.627,19.844 z m -51.535,-70.7866 c 1.185,-1.4809 1.778,-3.1099 1.778,-4.8869 0,-1.7771 -0.593,-3.3567 -1.778,-4.7389 -1.184,-1.4809 -2.616,-2.2213 -4.294,-2.2213 h -19.548 v 13.9204 h 19.548 c 1.678,0 3.11,-0.6911 4.294,-2.0733 z m 198.823,70.7866 h -48.573 l -5.035,-15.401 h -37.911 l -5.035,15.401 h -38.948 l 43.983,-118.47127 h 46.944 z m -62.346,-41.1688 -10.662,-31.3949 -10.07,31.3949 z m 148.338,-7.8487 h 38.651 c -1.579,15.0064 -7.503,27.4455 -17.77,37.3185 -10.268,9.774 -22.905,14.661 -37.911,14.661 -16.981,0 -31.444,-6.072 -43.39,-18.215 -11.946,-12.1435 -17.919,-26.8043 -17.919,-43.9826 0,-17.1784 5.973,-31.8392 17.919,-43.9825 11.946,-12.1433 26.409,-18.214954 43.39,-18.214954 15.006,0 27.643,4.985664 37.911,14.956954 10.267,9.8727 16.191,22.3615 17.77,37.4666 h -38.503 c -0.79,-5.3312 -2.665,-9.3296 -5.627,-11.9952 -2.962,-2.6656 -6.22,-3.9984 -9.774,-3.9984 -4.344,0 -8.096,2.1719 -11.255,6.5159 -3.159,4.3439 -4.739,10.7611 -4.739,19.2516 0,8.5891 1.531,15.0557 4.591,19.3996 3.159,4.2453 6.96,6.3679 11.403,6.3679 3.554,0 6.763,-1.2835 9.626,-3.8503 2.962,-2.6657 4.837,-6.5653 5.627,-11.6991 z m 109.084,49.0175 h -46.796 V 5.65431 h 46.796 z m 154.825,0 h -48.573 l -5.035,-15.401 h -37.911 l -5.035,15.401 h -38.948 l 43.983,-118.47127 h 46.944 z m -62.346,-41.1688 -10.662,-31.3949 -10.07,31.3949 z m 191.685,1.7771 c 0,5.7261 -1.086,11.0573 -3.258,15.9936 -2.073,4.9361 -5.281,9.4281 -9.625,13.4761 -4.344,3.949 -10.317,7.108 -17.919,9.478 -7.602,2.27 -16.487,3.406 -26.656,3.406 -16.487,0 -30.408,-3.653 -41.761,-10.959 -11.255,-7.404 -16.882,-17.2769 -16.882,-29.6176 h 36.874 c 0.395,2.6656 1.382,4.9856 2.961,6.9602 1.679,1.8758 3.653,3.2579 5.924,4.1465 2.369,0.8885 4.541,1.5302 6.516,1.9251 2.073,0.3949 4.048,0.5924 5.924,0.5924 4.541,0 8.342,-0.543 11.402,-1.629 3.16,-1.1847 4.739,-2.9124 4.739,-5.1831 0,-1.9746 -1.333,-3.6035 -3.998,-4.887 -2.666,-1.3821 -6.121,-2.5175 -10.366,-3.406 -4.246,-0.8886 -8.935,-1.8265 -14.069,-2.8137 -5.134,-0.9873 -10.317,-2.3694 -15.549,-4.1465 -5.134,-1.8758 -9.823,-4.1465 -14.069,-6.8121 -4.245,-2.6656 -7.7,-6.3185 -10.366,-10.9586 -2.666,-4.7388 -3.998,-10.2181 -3.998,-16.4379 0,-10.8599 4.985,-20.4363 14.957,-28.7293 9.971,-8.29296 23.595,-12.439454 40.872,-12.439454 15.5,0 28.285,3.652864 38.355,10.958554 10.169,7.207 15.254,16.2898 15.254,27.2484 h -35.542 c -0.494,-3.4554 -1.826,-6.2691 -3.998,-8.441 -2.172,-2.2707 -4.394,-3.7023 -6.664,-4.2946 -2.271,-0.6911 -4.64,-1.0367 -7.109,-1.0367 -9.675,0 -14.512,2.2707 -14.512,6.8121 0,2.5669 1.678,4.5908 5.035,6.0717 3.455,1.4809 8.638,2.9124 15.549,4.2946 4.541,0.9872 8.342,1.9251 11.403,2.8137 3.06,0.7898 6.861,1.9745 11.403,3.5541 4.541,1.4809 8.293,3.2086 11.255,5.1831 3.06,1.8758 6.071,4.1959 9.033,6.9602 2.962,2.6656 5.183,5.8742 6.664,9.6258 1.481,3.6529 2.221,7.75 2.221,12.2914 z"
     fill="#9f7aea"
     id="path2" />
  <path
     d="m 119.21,122 v 2.693 h 2.693 V 122 Z m -13.624,0 -2.413,1.195 0.741,1.498 h 1.672 z m -7.4045,-14.957 2.4135,-1.195 -2.1321,-4.305 -2.5599,4.065 z m -15.1051,13.032 1.1755,2.422 0.0144,-0.007 0.0142,-0.007 z m -64.7149,-13.328 -1.9195,1.888 0.0078,0.008 z m 0,-87.9651 -1.9117,-1.8961 -0.0078,0.0079 z m 71.6751,-11.40286 -1.2474,2.38619 0.0162,0.00844 0.0162,0.00822 z m 21.1764,18.80736 2.249,-1.4809 z m 7.997,26.8041 v 2.6925 h 2.693 v -2.6925 z m -38.503,0 h -2.6926 v 2.6925 h 2.6926 z m -4.4427,-11.4029 -1.9663,1.8394 0.0156,0.0167 0.0158,0.0164 z m -23.9904,2.0733 -2.1943,-1.5604 z m 0.2961,37.9108 -2.1815,1.5781 0.0109,0.0151 0.0111,0.0149 z m 22.8057,3.1098 -1.9039,-1.9039 v 0 z m 4.887,-9.6257 2.6502,0.4756 0.5686,-3.1682 h -3.2188 z m -13.328,0 h -2.6926 v 2.6925 h 2.6926 z m 0,-13.4761 v -2.6926 h -2.6926 v 2.6926 z m 52.2753,0 h 2.693 v -2.6926 h -2.693 z m 0,57.7273 h -13.624 v 5.386 h 13.624 z m -11.211,1.498 -7.404,-14.957 -4.8266,2.39 7.4046,14.957 z M 95.903,105.608 c -3.048,4.841 -7.6729,8.88 -14.0308,12.059 l 2.4083,4.816 c 7.0689,-3.534 12.5141,-8.184 16.1795,-14.005 z m -14.0022,12.044 c -6.3499,3.082 -13.0072,4.617 -20.0012,4.617 v 5.385 c 7.815,0 15.2755,-1.722 22.3523,-5.157 z m -20.0012,4.617 c -16.2571,0 -30.0834,-5.781 -41.6265,-17.418 l -3.8233,3.792 c 12.546,12.649 27.7452,19.011 45.4498,19.011 z M 20.2809,104.859 C 8.83516,93.2237 3.1352,79.243 3.1352,62.7644 h -5.38506 c 0,17.8781 6.2459,33.219 18.69186,45.8706 z M 3.1352,62.7644 c 0,-16.4786 5.69996,-30.4593 17.1457,-42.0943 L 16.442,16.8937 C 3.99604,29.5454 -2.24986,44.8863 -2.24986,62.7644 Z M 20.2731,20.678 C 31.8162,9.04028 45.6425,3.25948 61.8996,3.25948 v -5.38506 c -17.7046,0 -32.9038,6.3625 -45.4498,19.01138 z M 61.8996,3.25948 c 9.648,0 18.5975,2.1712 26.8896,6.50575 L 91.2839,4.99286 C 82.2003,0.244614 72.3918,-2.12558 61.8996,-2.12558 Z m 26.922,6.52241 C 97.1961,14.0162 103.896,19.9703 108.965,27.6672 l 4.497,-2.9617 C 107.868,16.2113 100.45,9.62728 91.2515,4.9762 Z M 108.965,27.6672 c 5.039,7.6521 7.553,16.0711 7.553,25.3233 h 5.385 c 0,-10.2956 -2.818,-19.746 -8.441,-28.285 z M 119.21,50.298 H 80.707 v 5.385 h 38.503 z m -35.8105,2.6925 c 0,-5.1891 -1.7182,-9.6771 -5.2003,-13.2753 l -3.8698,3.7449 c 2.4414,2.5227 3.685,5.6367 3.685,9.5304 z M 78.2306,39.7482 C 74.8378,36.1214 70.5123,34.3043 65.4538,34.3043 v 5.3851 c 3.6294,0 6.5109,1.2434 8.8442,3.7376 z M 65.4538,34.3043 c -6.4656,0 -11.6909,2.6165 -15.3742,7.7962 l 4.3885,3.1208 c 2.6352,-3.7057 6.1965,-5.5319 10.9857,-5.5319 z m -15.3742,7.7962 c -3.6124,5.0798 -5.2371,12.0855 -5.2371,20.6639 h 5.385 c 0,-8.0076 1.5345,-13.7377 4.2406,-17.5431 z m -5.2371,20.6639 c 0,8.2549 1.7522,15.1411 5.546,20.3854 l 4.3631,-3.1563 C 51.8319,75.9576 50.2275,70.3056 50.2275,62.7644 Z m 5.568,20.4154 c 3.8771,5.2065 8.8745,8.0446 14.8952,8.0446 v -5.3851 c -4.0494,0 -7.5425,-1.802 -10.5761,-5.8758 z m 14.8952,8.0446 c 4.7502,0 8.8291,-1.4941 11.974,-4.639 l -3.8079,-3.8078 c -1.9888,1.9889 -4.6233,3.0617 -8.1661,3.0617 z m 11.974,-4.639 c 2.9861,-2.9861 4.8529,-6.7067 5.6332,-11.054 l -5.3004,-0.9513 c -0.6019,3.3534 -1.9931,6.05 -4.1407,8.1975 z m 2.983,-14.2222 h -13.328 v 5.3851 h 13.328 z M 69.6272,75.0558 V 61.5797 H 64.2421 V 75.0558 Z M 66.9347,64.2722 H 119.21 V 58.8871 H 66.9347 Z M 116.518,61.5797 V 122 h 5.385 V 61.5797 Z M 264.964,122 v 2.693 h 4.307 l -1.886,-3.872 z m -43.834,0 -2.216,1.529 0.802,1.164 h 1.414 z m -7.701,-44.4267 -1.903,1.9039 v 0 z m -23.842,-1.7771 v -2.6925 h -2.692 v 2.6925 z m 0,46.2038 v 2.693 h 2.693 V 122 Z m -46.796,0 h -2.693 v 2.693 h 2.693 z m 0,-118.47127 V 0.836205 h -2.693 V 3.52873 Z m 105.884,8.88537 1.723,-2.0685 v 0 z m 4.739,40.4283 2.163,1.6027 v 0 z m -15.994,10.5143 -0.653,-2.6121 -9.859,2.4648 9.786,2.7401 z m 7.108,2.9618 -1.325,2.344 0.04,0.0223 0.04,0.0209 z m 6.96,5.1831 -1.863,1.944 0.022,0.0206 0.022,0.0202 z m 5.628,8.7373 -2.519,0.9528 0.016,0.0417 0.017,0.0411 z m -43.687,-29.0255 2.045,1.7523 0.029,-0.0346 0.029,-0.0357 z m 0,-9.6258 -2.102,1.682 0.028,0.0357 0.03,0.0346 z m -23.842,-2.2213 v -2.6925 h -2.692 v 2.6925 z m 0,13.9204 h -2.692 v 2.6925 h 2.692 z m 75.377,66.0203 H 221.13 v 5.386 h 43.834 z m -41.617,1.164 c -3.661,-5.308 -5.448,-10.902 -5.448,-16.834 h -5.385 c 0,7.099 2.163,13.748 6.4,19.892 z m -5.448,-16.834 V 81.8679 h -5.385 v 21.7691 z m 0,-21.7691 c 0,-2.3911 -0.875,-4.5079 -2.566,-6.1985 l -3.807,3.8078 c 0.678,0.6788 0.988,1.425 0.988,2.3907 z m -2.566,-6.1985 c -1.69,-1.6907 -3.807,-2.5657 -6.198,-2.5657 v 5.385 c 0.966,0 1.712,0.3097 2.391,0.9885 z m -6.198,-2.5657 h -19.548 v 5.385 h 19.548 z m -22.24,2.6925 V 122 h 5.385 V 75.7962 Z m 2.692,43.5108 h -46.796 v 5.386 h 46.796 z M 145.484,122 V 3.52873 h -5.386 V 122 Z M 142.791,6.22126 h 77.747 V 0.836205 h -77.747 z m 77.747,0 c 11.187,0 19.903,2.83653 26.413,8.26124 l 3.447,-4.1369 C 242.692,3.92324 232.65,0.836205 220.538,0.836205 Z m 26.413,8.26124 c 6.593,5.4939 9.694,11.7835 9.694,18.9602 h 5.385 c 0,-9.0143 -4.008,-16.7439 -11.632,-23.0971 z m 9.694,18.9602 c 0,7.1125 -1.838,12.9954 -5.395,17.797 l 4.327,3.2054 c 4.341,-5.8608 6.453,-12.911 6.453,-21.0024 z m -5.395,17.797 c -3.561,4.807 -8.347,7.9708 -14.483,9.5049 l 1.306,5.2243 c 7.29,-1.8226 13.167,-5.6684 17.504,-11.5238 z m -14.556,14.7098 c 2.255,0.6316 4.424,1.5344 6.509,2.713 l 2.65,-4.688 c -2.456,-1.3883 -5.026,-2.46 -7.707,-3.2106 z m 6.589,2.7562 c 1.992,1.0392 4.108,2.5985 6.342,4.7399 l 3.726,-3.888 c -2.504,-2.4 -5.028,-4.2961 -7.577,-5.6262 z m 6.386,4.7807 c 1.999,1.8326 3.664,4.3628 4.928,7.7053 l 5.037,-1.9057 c -1.5,-3.9632 -3.587,-7.2578 -6.326,-9.7692 z m 4.961,7.7881 c 1.322,3.1726 2.015,6.859 2.015,11.1077 h 5.385 c 0,-4.8341 -0.789,-9.2433 -2.429,-13.1789 z m 2.015,11.1077 v 9.7738 h 5.385 v -9.7738 z m 0,9.7738 c 0,6.101 2.057,13.137 5.899,21.023 l 4.841,-2.358 c -3.661,-7.516 -5.355,-13.708 -5.355,-18.665 z M 215.532,52.8954 c 1.539,-1.9239 2.367,-4.1378 2.367,-6.5689 h -5.385 c 0,1.123 -0.357,2.167 -1.187,3.2049 z m 2.367,-6.5689 c 0,-2.4368 -0.833,-4.634 -2.425,-6.4912 l -4.089,3.5046 c 0.778,0.9072 1.129,1.8692 1.129,2.9866 z m -2.367,-6.4209 c -1.621,-2.0256 -3.788,-3.2318 -6.397,-3.2318 v 5.385 c 0.747,0 1.443,0.2747 2.192,1.2108 z m -6.397,-3.2318 h -19.548 v 5.385 h 19.548 z m -22.24,2.6925 v 13.9204 h 5.385 V 39.3663 Z m 2.692,16.6129 h 19.548 v -5.3851 h -19.548 z m 19.548,0 c 2.537,0 4.692,-1.0917 6.339,-3.0135 l -4.089,-3.5046 c -0.722,0.8426 -1.43,1.133 -2.25,1.133 z M 412.252,122 v 2.693 h 3.89 l -1.37,-3.641 z m -48.573,0 -2.56,0.837 0.607,1.856 h 1.953 z m -5.035,-15.401 2.559,-0.837 -0.607,-1.856 h -1.952 z m -37.911,0 v -2.693 h -1.953 l -0.607,1.856 z M 315.698,122 v 2.693 h 1.952 l 0.607,-1.856 z m -38.948,0 -2.524,-0.937 -1.347,3.63 h 3.871 z M 320.733,3.52873 V 0.836205 h -1.873 l -0.651,1.755425 z m 46.944,0 2.52,-0.94817 -0.656,-1.744355 h -1.864 z M 349.906,80.8312 v 2.6926 h 3.758 l -1.208,-3.5584 z m -10.662,-31.3949 2.549,-0.8658 -2.622,-7.722 -2.491,7.7655 z m -10.07,31.3949 -2.564,-0.8223 -1.127,3.5149 h 3.691 z m 83.078,38.4758 h -48.573 v 5.386 h 48.573 z m -46.014,1.856 -5.035,-15.401 -5.119,1.673 5.035,15.402 z m -7.594,-17.257 h -37.911 v 5.385 h 37.911 z m -40.471,1.856 -5.035,15.401 5.119,1.674 5.035,-15.402 z m -2.475,13.545 H 276.75 v 5.386 h 38.948 z m -36.424,3.63 L 323.257,4.46584 318.209,2.59163 274.226,121.063 Z M 320.733,6.22126 h 46.944 V 0.836205 h -46.944 z m 44.424,-1.74435 44.575,118.47109 5.04,-1.896 L 370.197,2.58056 Z m -12.701,75.48849 -10.663,-31.3949 -5.099,1.7317 10.663,31.3949 z M 336.68,48.614 l -10.07,31.3949 5.128,1.6447 10.07,-31.3949 z m -7.506,34.9098 h 20.732 V 78.1387 H 329.174 Z M 498.244,72.9825 V 70.29 h -2.31 l -0.351,2.2831 z m 38.651,0 2.678,0.2819 0.313,-2.9744 h -2.991 z m -17.77,37.3185 1.856,1.95 0.01,-0.009 z m -81.301,-3.554 1.919,-1.888 z m 81.301,-91.2231 -1.876,1.9316 0.009,0.0093 z m 17.77,37.4666 v 2.6925 h 2.989 l -0.311,-2.9726 z m -38.503,0 -2.663,0.3946 0.34,2.2979 h 2.323 z m -5.627,-11.9952 1.801,-2.0014 v 0 z m -21.029,2.5175 -2.177,-1.5837 z m -0.148,38.6512 -2.201,1.5508 0.02,0.0286 0.021,0.0281 z m 21.029,2.5175 1.797,2.0048 0.004,-0.0034 z m 5.627,-9.0065 h 38.651 V 70.29 h -38.651 z m 35.974,-2.9744 C 532.7,87.1162 527.04,98.955 517.258,108.36 l 3.733,3.882 c 10.754,-10.34 16.94,-23.3804 18.582,-38.9776 z m -16.95,35.6504 c -9.735,9.267 -21.694,13.918 -36.054,13.918 v 5.385 c 15.653,0 28.968,-5.123 39.767,-15.403 z m -36.054,13.918 c -16.257,0 -30.029,-5.78 -41.471,-17.41 l -3.839,3.776 c 12.451,12.656 27.605,19.019 45.31,19.019 z m -41.471,-17.41 C 428.297,93.2237 422.598,79.243 422.598,62.7644 h -5.386 c 0,17.8781 6.246,33.219 18.692,45.8706 z M 422.598,62.7644 c 0,-16.4786 5.699,-30.4593 17.145,-42.0943 l -3.839,-3.7764 C 423.458,29.5454 417.212,44.8863 417.212,62.7644 Z M 439.743,20.6701 C 451.185,9.03954 464.957,3.25948 481.214,3.25948 v -5.38506 c -17.705,0 -32.859,6.36324 -45.31,19.01928 z M 481.214,3.25948 c 14.343,0 26.296,4.73829 36.035,14.19602 L 521,13.5924 C 510.204,3.10745 496.883,-2.12558 481.214,-2.12558 Z m 36.044,14.20532 c 9.778,9.4016 15.441,21.2874 16.959,35.8057 l 5.356,-0.5601 C 537.932,37.0186 531.748,23.9267 520.991,13.5831 Z m 19.637,32.8332 h -38.503 v 5.385 h 38.503 z m -35.839,2.2979 c -0.85,-5.7323 -2.921,-10.3902 -6.49,-13.602 l -3.602,4.0027 c 2.355,2.1195 4.034,5.4584 4.765,10.3885 z m -6.49,-13.602 c -3.392,-3.0526 -7.274,-4.6896 -11.575,-4.6896 v 5.3851 c 2.807,0 5.441,1.0286 7.973,3.3072 z m -11.575,-4.6896 c -5.411,0 -9.901,2.7686 -13.432,7.6248 l 4.355,3.1674 c 2.786,-3.8318 5.8,-5.4071 9.077,-5.4071 z m -13.432,7.6248 c -3.638,5.0019 -5.254,12.0822 -5.254,20.8353 h 5.385 c 0,-8.2279 1.543,-13.982 4.224,-17.6679 z m -5.254,20.8353 c 0,8.831 1.559,15.9503 5.082,20.9504 l 4.402,-3.1015 c -2.598,-3.6879 -4.099,-9.5016 -4.099,-17.8489 z m 5.123,21.0071 c 3.558,4.7807 8.101,7.4529 13.563,7.4529 v -5.3851 c -3.424,0 -6.482,-1.573 -9.243,-5.2827 z m 13.563,7.4529 c 4.274,0 8.11,-1.5677 11.423,-4.5381 l -3.595,-4.0095 c -2.413,2.1634 -4.994,3.1625 -7.828,3.1625 z m 11.427,-4.5415 c 3.548,-3.193 5.632,-7.7318 6.487,-13.291 l -5.322,-0.8188 c -0.724,4.7083 -2.392,7.9689 -4.767,10.1071 z M 607.328,122 v 2.693 h 2.692 V 122 Z m -46.796,0 h -2.693 v 2.693 h 2.693 z m 0,-118.47127 V 0.836205 h -2.693 V 3.52873 Z m 46.796,0 h 2.692 V 0.836205 h -2.692 z m 0,115.77827 h -46.796 v 5.386 h 46.796 z M 563.224,122 V 3.52873 h -5.385 V 122 Z M 560.532,6.22126 h 46.796 V 0.836205 H 560.532 Z M 604.635,3.52873 V 122 h 5.385 V 3.52873 Z M 762.153,122 v 2.693 h 3.89 l -1.37,-3.641 z m -48.573,0 -2.56,0.837 0.607,1.856 h 1.953 z m -5.036,-15.401 2.56,-0.837 -0.607,-1.856 h -1.953 z m -37.91,0 v -2.693 h -1.953 l -0.607,1.856 z M 665.599,122 v 2.693 h 1.952 l 0.607,-1.856 z m -38.948,0 -2.524,-0.937 -1.347,3.63 h 3.871 z M 670.634,3.52873 V 0.836205 h -1.873 l -0.652,1.755425 z m 46.944,0 2.52,-0.94817 -0.656,-1.744355 h -1.864 z M 699.807,80.8312 v 2.6926 h 3.758 l -1.208,-3.5584 z m -10.662,-31.3949 2.549,-0.8658 -2.622,-7.722 -2.491,7.7655 z m -10.07,31.3949 -2.564,-0.8223 -1.128,3.5149 h 3.692 z m 83.078,38.4758 H 713.58 v 5.386 h 48.573 z m -46.014,1.856 -5.035,-15.401 -5.119,1.673 5.035,15.402 z m -7.595,-17.257 h -37.91 v 5.385 h 37.91 z m -40.47,1.856 -5.035,15.401 5.119,1.674 5.035,-15.402 z m -2.475,13.545 h -38.948 v 5.386 h 38.948 z m -36.424,3.63 L 673.158,4.46584 668.109,2.59163 624.127,121.063 Z M 670.634,6.22126 h 46.944 V 0.836205 h -46.944 z m 44.424,-1.74435 44.575,118.47109 5.04,-1.896 L 720.098,2.58056 Z m -12.701,75.48849 -10.663,-31.3949 -5.099,1.7317 10.663,31.3949 z m -15.776,-31.3514 -10.07,31.3949 5.128,1.6447 10.07,-31.3949 z m -7.506,34.9098 h 20.732 v -5.3851 h -20.732 z m 209.159,15.0781 -2.464,-1.0844 -0.009,0.0208 -0.009,0.021 z m -9.625,13.4761 1.811,1.992 0.012,-0.011 0.012,-0.011 z m -17.919,9.478 0.77,2.58 0.016,-0.005 0.015,-0.005 z m -68.417,-7.553 -1.48,2.25 0.011,0.007 0.012,0.007 z M 775.391,84.3854 v -2.6926 h -2.693 v 2.6926 z m 36.874,0 2.663,-0.3946 -0.34,-2.298 h -2.323 z m 2.962,6.9602 -2.103,1.682 0.046,0.058 0.05,0.0553 z m 5.923,4.1465 -0.981,2.5074 0.018,0.0069 0.018,0.0068 z m 6.516,1.9251 -0.528,2.6398 0.012,0.003 0.012,0.002 z m 17.326,-1.0366 0.901,2.5375 0.022,-0.008 0.023,-0.0084 z m 0.741,-10.0701 -1.24,2.3903 0.036,0.0184 0.036,0.0173 z m -10.366,-3.406 -0.552,2.6354 z m -14.069,-2.8137 0.509,-2.6441 z m -15.549,-4.1465 -0.924,2.529 0.029,0.0106 0.029,0.0099 z m -14.069,-6.8121 1.432,-2.2803 z m -10.366,-10.9586 -2.347,1.32 0.006,0.0107 0.006,0.0105 z m 10.959,-45.1672 -1.722,-2.0701 v 0 z m 79.227,-1.4809 -1.581,2.1794 0.012,0.0088 0.012,0.0086 z m 15.253,27.2484 v 2.6926 h 2.693 v -2.6926 z m -35.541,0 -2.665,0.3808 0.33,2.3118 h 2.335 z m -3.998,-8.441 -1.946,1.8611 0.021,0.0216 0.021,0.0212 z m -6.664,-4.2946 -0.784,2.5758 0.052,0.0158 0.052,0.0137 z m -16.586,11.8471 -1.087,2.4634 0.013,0.0058 0.013,0.0056 z m 15.549,4.2946 0.572,-2.6311 -0.022,-0.0048 -0.022,-0.0044 z m 11.403,2.8137 -0.751,2.5857 0.039,0.0113 0.039,0.0101 z m 11.403,3.5541 -0.885,2.5431 0.025,0.0086 0.025,0.0082 z m 11.255,5.1831 -1.494,2.2404 0.043,0.0284 0.044,0.0269 z m 9.033,6.9602 -1.837,1.9684 0.018,0.0166 0.018,0.0164 z m 6.664,9.6258 -2.504,0.9886 0.004,0.0115 0.005,0.0115 z M 888.8,82.6083 c 0,5.3762 -1.018,10.3355 -3.03,14.9092 l 4.929,2.1688 c 2.331,-5.2989 3.486,-11.002 3.486,-17.078 z m -3.048,14.951 c -1.91,4.5487 -4.883,8.7327 -8.979,12.5487 l 3.671,3.94 c 4.592,-4.279 8.037,-9.079 10.273,-14.4034 z m -8.955,12.5267 c -3.969,3.608 -9.555,6.607 -16.908,8.899 l 1.602,5.141 c 7.85,-2.447 14.21,-5.766 18.929,-10.056 z m -16.878,8.89 c -7.293,2.178 -15.908,3.293 -25.885,3.293 v 5.385 c 10.36,0 19.516,-1.155 27.426,-3.518 z m -25.885,3.293 c -16.086,0 -29.473,-3.56 -40.304,-10.53 l -2.914,4.528 c 11.875,7.642 26.329,11.387 43.218,11.387 z m -40.281,-10.515 c -10.581,-6.961 -15.67,-16.0282 -15.67,-27.3686 h -5.385 c 0,13.341 6.165,24.0186 18.095,31.8676 z M 775.391,87.0779 h 36.874 v -5.3851 h -36.874 z m 34.21,-2.2979 c 0.46,3.1047 1.626,5.8765 3.523,8.2476 l 4.205,-3.3641 c -1.262,-1.578 -2.071,-3.4462 -2.401,-5.6727 z m 3.619,8.3609 c 1.95,2.1797 4.272,3.8112 6.949,4.8586 l 1.962,-5.0149 c -1.865,-0.7297 -3.492,-1.8625 -4.898,-3.4344 z m 6.985,4.8723 c 2.472,0.9271 4.786,1.6148 6.933,2.0438 l 1.056,-5.28 c -1.802,-0.3604 -3.832,-0.9561 -6.099,-1.806 z m 6.957,2.0488 c 2.219,0.423 4.363,0.64 6.428,0.64 v -5.385 c -1.688,0 -3.493,-0.1776 -5.42,-0.5448 z m 6.428,0.64 c 4.735,0 8.863,-0.563 12.303,-1.7839 l -1.801,-5.075 c -2.681,0.9514 -6.155,1.4739 -10.502,1.4739 z m 12.348,-1.8003 c 3.608,-1.3529 6.486,-3.7819 6.486,-7.7042 h -5.385 c 0,0.619 -0.281,1.6455 -2.992,2.662 z m 6.486,-7.7042 c 0,-3.4838 -2.448,-5.8323 -5.523,-7.3129 l -2.336,4.8519 c 2.256,1.0862 2.474,1.9957 2.474,2.461 z m -5.452,-7.2773 c -2.955,-1.5324 -6.665,-2.7327 -11.054,-3.6511 l -1.103,5.2708 c 4.102,0.8586 7.303,1.929 9.678,3.1609 z m -11.054,-3.6511 c -4.262,-0.8921 -8.966,-1.8329 -14.111,-2.8224 l -1.017,5.2882 c 5.122,0.985 9.797,1.92 14.025,2.805 z m -14.111,-2.8224 c -5.006,-0.9627 -10.07,-2.3123 -15.192,-4.0519 l -1.732,5.099 c 5.343,1.8145 10.645,3.2292 15.907,4.2411 z m -15.134,-4.0314 c -4.972,-1.8167 -9.489,-4.0068 -13.561,-6.5634 l -2.863,4.5606 c 4.418,2.7746 9.28,5.1259 14.576,7.0608 z m -13.561,-6.5634 c -3.847,-2.4154 -7.002,-5.735 -9.463,-10.0195 l -4.67,2.6824 c 2.87,4.9958 6.626,8.9819 11.27,11.8977 z m -9.451,-9.9983 c -2.408,-4.2809 -3.653,-9.2931 -3.653,-15.1179 h -5.385 c 0,6.6147 1.421,12.5611 4.344,17.7579 z m -3.653,-15.1179 c 0,-9.9027 4.498,-18.7679 13.986,-26.6591 l -3.443,-4.1403 C 780.097,19.631 774.623,29.9186 774.623,41.7357 Z M 793.994,15.0766 C 803.342,7.30235 816.287,3.25948 833.145,3.25948 v -5.38506 c -17.696,0 -31.999,4.25011 -42.594,13.06188 z M 833.145,3.25948 c 15.074,0 27.266,3.54764 36.774,10.44542 l 3.162,-4.35875 C 862.449,1.6325 849.072,-2.12558 833.145,-2.12558 Z m 36.798,10.46282 c 9.57,6.7822 14.118,15.096 14.118,25.0516 h 5.385 c 0,-11.9615 -5.621,-21.8134 -16.389,-29.44511 z m 16.81,22.3591 h -35.541 v 5.3851 h 35.541 z m -32.875,2.3118 c -0.565,-3.95 -2.121,-7.3252 -4.76,-9.9643 l -3.808,3.8079 c 1.705,1.7049 2.814,3.957 3.237,6.9179 z m -4.719,-9.9215 c -2.403,-2.5126 -5.039,-4.2846 -7.93,-5.0388 l -1.359,5.2107 c 1.65,0.4306 3.457,1.5216 5.398,3.5504 z m -7.825,-5.0093 c -2.535,-0.7715 -5.169,-1.1533 -7.893,-1.1533 v 5.3851 c 2.214,0 4.318,0.3092 6.325,0.9199 z m -7.893,-1.1533 c -4.963,0 -9.069,0.5689 -12.028,1.9582 -1.515,0.711 -2.834,1.6856 -3.773,3.0072 -0.956,1.347 -1.404,2.8964 -1.404,4.5392 h 5.385 c 0,-0.6278 0.157,-1.0653 0.41,-1.4213 0.271,-0.3814 0.766,-0.826 1.67,-1.2503 1.878,-0.8815 5.028,-1.4479 9.74,-1.4479 z m -17.205,9.5046 c 0,4.0808 2.796,6.839 6.641,8.5351 l 2.174,-4.9268 c -2.869,-1.2657 -3.43,-2.5553 -3.43,-3.6083 z m 6.667,8.5465 c 3.716,1.5925 9.118,3.0671 16.082,4.46 l 1.056,-5.2805 c -6.857,-1.3714 -11.822,-2.7598 -15.017,-4.1291 z m 16.038,4.4509 c 4.506,0.9795 8.243,1.9027 11.224,2.7683 l 1.502,-5.1715 c -3.14,-0.9115 -7.005,-1.864 -11.582,-2.859 z m 11.302,2.7897 c 2.963,0.7645 6.688,1.9236 11.191,3.4901 l 1.769,-5.0862 c -4.579,-1.5928 -8.456,-2.8031 -11.614,-3.6181 z m 11.241,3.5069 c 4.382,1.429 7.894,3.0624 10.596,4.8636 l 2.987,-4.4807 c -3.222,-2.1479 -7.213,-3.9699 -11.913,-5.5027 z m 10.683,4.9189 c 2.888,1.7702 5.757,3.9764 8.603,6.6329 l 3.674,-3.9368 c -3.077,-2.8721 -6.231,-5.3061 -9.463,-7.2874 z m 8.639,6.6659 c 2.648,2.3834 4.631,5.2439 5.961,8.613 l 5.009,-1.9772 c -1.632,-4.1341 -4.093,-7.6908 -7.368,-10.6385 z m 5.97,8.636 c 1.332,3.2864 2.024,7.033 2.024,11.2798 h 5.385 c 0,-4.8359 -0.789,-9.2837 -2.419,-13.303 z"
     fill="#9f7aea"
     mask="url(#path-1-outside-1_47_372)"
     id="path3"
     transform="translate(2.24986,2.12558)" />
</svg>
