<?xml version="1.0" encoding="UTF-8" standalone="no"?>
<!-- Created with Inkscape (http://www.inkscape.org/) -->

<svg
   version="1.1"
   id="svg185"
   width="511.285"
   height="511.285"
   viewBox="0 0 511.285 511.28501"
   xmlns="http://www.w3.org/2000/svg"
   xmlns:svg="http://www.w3.org/2000/svg">
  <defs
     id="defs189" />
  <g
     id="g191"
     transform="translate(190.79821)">
    <path
       style="fill:#ed64a6;fill-opacity:1"
       d="m -184.65742,510.63129 c -1.1,-0.45194 -2.9,-1.82658 -4,-3.05475 -4.09033,-4.56692 -1.15372,-26.98883 5.43906,-41.52889 7.42909,-16.38451 22.5661,-32.96114 38.11697,-41.74212 9.73856,-5.49899 24.37914,-10.50977 33.28277,-11.39112 7.42328,-0.73482 10.98702,-2.26539 5.37966,-2.31048 -2.07985,-0.0167 -6.57985,-0.9646 -10,-2.10639 -19.96703,-6.66584 -35.55572,-22.36034 -41.96495,-42.24981 -2.7684,-8.59106 -2.7684,-24.75736 0,-33.34842 6.44074,-19.98726 21.86237,-35.45818 42.24649,-42.38151 4.93446,-1.67595 8.90853,-2.21887 16.500005,-2.25415 14.49394,-0.0674 25.34891,3.56141 37.25,12.45248 l 5.25,3.92218 v -52.44865 -52.44864 l -11.98002,-0.33375 c -11.53192,-0.32127 -12.08277,-0.43661 -14.72727,-3.08375 -3.83429,-3.83812 -3.83369,-9.66304 0.001,-13.5 l 2.74866,-2.75 30.79552,-0.29018 30.79552,-0.29018 1.80397,-5.01668 c 4.54849,-12.64781 18.83339,-29.84263 32.56262,-39.19536 11.88615,-8.09717 30.13451,-14.7076 40.60095,-14.7076 6.19574,0 6.26746,-1.63057 0.0997,-2.26713 -13.21615,-1.36403 -29.24768,-10.97762 -38.20252,-22.908828 -27.38341,-36.484994 -5.42071,-88.5696262 40.01207,-94.88874367 20.44749,-2.84398423 42.3668,6.41958567 54.991665,23.24065767 17.88987,23.836033 15.56571,56.776928 -5.49164,77.834274 -9.305845,9.30586 -25.022465,16.98977 -34.750745,16.98977 -1.99703,0 -3.12491,0.40873 -2.75948,1 0.33992,0.55 2.54449,1 4.89905,1 5.51036,0 17.71043,3.12899 26.334275,6.75402 9.26941,3.8964 20.45559,11.72145 28.45399,19.90438 7.18727,7.35309 16.49001,21.30385 18.72815,28.08549 l 1.37803,4.17545 30.83187,0.29033 30.83186,0.29033 2.74866,2.75 c 3.83509,3.83696 3.83569,9.66188 0.001,13.5 -2.6445,2.64714 -3.19535,2.76248 -14.72727,3.08375 l -11.97962,0.33375 v 52.50028 52.50028 l 3.75,-2.95035 c 5.51761,-4.34104 13.876,-8.77673 21.25,-11.2771 8.47739,-2.8745 23.69881,-3.1223 32.5,-0.52909 20.3895,6.00764 37.15264,22.45189 43.74649,42.91427 2.90057,9.00121 2.81438,24.88172 -0.18276,33.67421 -7.94667,23.31251 -27.83057,40.74455 -50.06373,43.89045 -6.13997,0.86878 -5.52743,1.142 6.72388,2.99917 28.94167,4.38724 55.92601,25.21253 68.44512,52.82284 3.9108,8.62508 6.99178,22.14831 7.17765,31.50464 0.14302,7.19896 -0.0334,7.90637 -2.61934,10.50093 l -2.7727,2.78197 -248.727295,0.18974 c -136.80002,0.10436 -249.627315,-0.18003 -250.727315,-0.63197 z m 156.117655,-23.04742 c -2.17789,-13.61976 -13.03584,-30.82887 -25.50497,-40.42365 -35.12001,-27.02422 -84.589195,-18.00697 -107.352125,19.56816 -4.22865,6.98031 -7.43625,14.96484 -8.3782,20.85549 l -0.63797,3.98965 h 71.255615 71.25562 z m 163.999995,0 C 133.28234,473.96411 122.42439,456.755 109.95526,447.16022 74.835255,420.136 25.366075,429.15325 2.603145,466.72838 c -4.22865,6.98031 -7.43625,14.96484 -8.37821,20.85549 l -0.63797,3.98965 h 71.25562 71.255615 z m 164,0 C 297.28234,473.96411 286.42439,456.755 273.95526,447.16022 238.83525,420.136 189.36607,429.15325 166.60314,466.72838 c -4.22865,6.98031 -7.43625,14.96484 -8.37821,20.85549 l -0.63797,3.98965 h 71.25562 71.25562 z M -12.157415,453.43135 c 6.21139,-9.78776 20.45693,-23.15148 31.04772,-29.12582 9.75126,-5.50075 24.39153,-10.51017 33.29107,-11.39112 7.42328,-0.73482 10.98703,-2.26539 5.37966,-2.31048 -2.07985,-0.0167 -6.57985,-0.9646 -10,-2.10639 -19.96703,-6.66584 -35.55571,-22.36034 -41.96494,-42.24981 -2.7684,-8.59106 -2.7684,-24.75736 0,-33.34842 6.44074,-19.98726 21.86237,-35.45818 42.24649,-42.38151 8.47498,-2.87847 23.6922,-3.12792 32.5,-0.53276 20.389495,6.00764 37.152635,22.45189 43.746485,42.91427 2.90057,9.00121 2.81438,24.88172 -0.18276,33.67421 -7.94667,23.31251 -27.830565,40.74455 -50.063725,43.89045 -6.13997,0.86878 -5.52743,1.142 6.72388,2.99917 12.86689,1.95048 26.425615,7.55059 37.776115,15.60254 7.81742,5.54561 20.26306,18.62728 24.56618,25.82161 1.8706,3.12743 3.63345,5.67471 3.91745,5.66064 0.284,-0.0141 2.54137,-3.21653 5.01637,-7.11658 6.21139,-9.78776 20.45693,-23.15148 31.04772,-29.12582 9.75126,-5.50075 24.39153,-10.51017 33.29107,-11.39112 7.42328,-0.73482 10.98703,-2.26539 5.37966,-2.31048 -2.07985,-0.0167 -6.57985,-0.9646 -10,-2.10639 -19.91243,-6.64761 -35.14893,-21.94412 -42.08407,-42.24981 -2.06523,-6.04688 -2.11505,-7.82921 -2.41593,-86.42421 l -0.30721,-80.25 H 64.842585 -37.068655 l -0.29438,80.25 -0.29438,80.25 -2.32598,6.5 c -8.47823,23.69257 -27.97736,40.74972 -50.17402,43.89045 -6.139972,0.86878 -5.527435,1.142 6.72388,2.99917 12.86689,1.95048 26.42562,7.55059 37.77612,15.60254 7.81742,5.54561 20.26306,18.62728 24.56618,25.82161 1.8706,3.12743 3.63345,5.67471 3.91745,5.66064 0.284,-0.0141 2.54137,-3.21653 5.01637,-7.11658 z m 13.5,-208.76534 c -6.37272,-2.72889 -8.05784,-10.98919 -3.22727,-15.81976 6.07239,-6.07239 16.18182,-1.8696 16.18182,6.72727 0,6.58509 -7.12751,11.58771 -12.95455,9.09249 z m 40,-0.0217 c -6.37578,-2.66096 -8.05822,-10.9671 -3.20455,-15.82077 l 2.75,-2.75 h 43.95455 43.954545 l 2.75,2.75 c 3.83754,3.83755 3.8379,9.66178 8.2e-4,13.5 l -2.74918,2.75 -42.728095,0.20274 c -23.50045,0.11148 -43.62809,-0.1729 -44.72809,-0.63199 z m -129.4315,145.34095 c 13.32134,-3.89537 25.41443,-15.99139 29.33615,-29.34324 7.55997,-25.7386 -13.51848,-53.0685 -40.929601,-53.0685 -21.701424,0 -41.475054,20.0239 -41.475054,42 0,13.93737 7.45316,26.79999 20.84965,35.98219 8.12059,5.566 21.868613,7.45613 32.218855,4.42955 z m 164,0 c 13.32134,-3.89537 25.414425,-15.99139 29.336145,-29.34324 7.55997,-25.7386 -13.518475,-53.0685 -40.929595,-53.0685 -21.70142,0 -41.47505,20.0239 -41.47505,42 0,13.93737 7.45316,26.79999 20.84964,35.98219 8.1206,5.566 21.86862,7.45613 32.21886,4.42955 z m 163.999995,0 c 13.32134,-3.89537 25.41443,-15.99139 29.33615,-29.34324 7.55997,-25.7386 -13.51848,-53.0685 -40.9296,-53.0685 -21.70142,0 -41.47505,20.0239 -41.47505,42 0,13.93737 7.45316,26.79999 20.84964,35.98219 8.1206,5.566 21.86862,7.45613 32.21886,4.42955 z M 127.84258,178.7693 c 0,-1.32408 -5.9773,-10.36355 -10.1871,-15.40594 -4.46515,-5.34824 -14.09922,-12.88776 -20.819755,-16.29332 -18.8318,-9.54279 -42.28511,-9.94015 -61.49314,-1.04185 -8.5401,3.95628 -18.04189,11.02169 -23.3129,17.33517 -4.2098,5.04239 -10.1871,14.08186 -10.1871,15.40594 0,0.44232 28.35,0.80422 63,0.80422 34.65,0 62.999995,-0.3619 62.999995,-0.80422 z M 81.095225,96.330137 c 7.98066,-3.67412 16.05057,-11.595807 20.013725,-19.646132 3.02373,-6.142064 3.23363,-7.251367 3.23363,-17.089459 0,-9.337048 -0.30338,-11.168398 -2.69589,-16.273671 -3.758915,-8.021022 -11.675765,-16.066553 -19.693615,-20.013728 -6.14207,-3.023728 -7.25137,-3.233628 -17.08946,-3.233628 -9.33705,0 -11.1684,0.30338 -16.27367,2.695887 -8.02103,3.758926 -16.06656,11.675777 -20.01373,19.693627 -3.02373,6.142064 -3.23363,7.251367 -3.23363,17.089459 0,9.321879 0.30546,11.172751 2.68006,16.239092 2.91423,6.217705 10.1504,14.586984 15.43699,17.854278 7.23958,4.474303 13.36946,5.988177 22.88295,5.651333 7.16787,-0.253796 10.17107,-0.857801 14.75264,-2.967058 z"
       id="path420" />
  </g>
</svg>
