<?xml version="1.0" encoding="UTF-8" standalone="no"?>
<!-- Created with Inkscape (http://www.inkscape.org/) -->

<svg
   version="1.1"
   id="svg2"
   width="511.61499"
   height="511.61499"
   viewBox="0 0 511.61499 511.61499"
   xmlns="http://www.w3.org/2000/svg"
   xmlns:svg="http://www.w3.org/2000/svg">
  <defs
     id="defs6" />
  <g
     id="g8"
     transform="translate(-187.33358,-5.0563647)">
    <path
       style="fill:#ed64a6;fill-opacity:1"
       d="m 380.58485,515.93944 c -40.80334,-5.53786 -74.12482,-37.34961 -80.85071,-77.18752 l -1.28407,-7.60565 -21.99088,-0.26862 -21.99088,-0.26862 -2.29211,5.53012 c -2.93194,7.07385 -9.59353,13.9151 -16.87101,17.32602 -4.80354,2.2514 -7.08264,2.68024 -14.22034,2.67573 -10.78701,-0.007 -17.50956,-2.98927 -24.85589,-11.02733 -6.15128,-6.73048 -8.60852,-13.33441 -8.58348,-23.06845 0.0153,-5.9551 0.53798,-8.15685 3.2385,-13.64239 7.84039,-15.9261 25.35108,-23.11447 42.20087,-17.32402 7.0733,2.43075 16.81816,11.85729 19.4724,18.83631 l 1.81364,4.76875 22.00246,-0.26875 22.00247,-0.26875 1.91606,-9.48711 c 6.74959,-33.41973 29.74788,-59.61071 61.96966,-70.57248 10.53976,-3.5856 20.34744,-4.76816 34.55067,-4.16593 18.59889,0.7886 32.18395,5.17173 47.14937,15.21244 8.09469,5.43095 20.25662,17.66351 25.59423,25.74288 2.24195,3.39357 4.24279,5.45643 4.90721,5.05932 0.61701,-0.36877 8.32183,-6.05456 17.12183,-12.6351 8.8,-6.58054 16.11311,-12.04535 16.25137,-12.14402 0.13825,-0.0987 -0.72254,-3.74128 -1.91287,-8.0947 -3.09431,-11.3169 -3.11134,-34.45519 -0.0336,-45.69908 2.45788,-8.97945 8.52328,-22.40318 13.27942,-29.38952 4.73397,-6.95377 16.42304,-18.8336 23.5722,-23.95689 6.66376,-4.77543 21.27049,-12.0052 26.27832,-13.00677 1.70875,-0.34175 3.34025,-0.99907 3.62556,-1.4607 0.39238,-0.63488 -32.24606,-45.43544 -36.6467,-50.30243 -0.46706,-0.51656 -3.71137,0.61206 -7.61375,2.64864 -20.48917,10.69289 -45.09506,13.12397 -68.13606,6.73189 -31.42008,-8.71661 -57.43752,-35.64459 -65.24649,-67.52991 -0.66683,-2.72279 -1.33559,-5.10258 -1.48612,-5.28842 -0.15053,-0.18584 -9.27138,7.38412 -20.26854,16.82214 l -19.99485,17.16004 4.29521,6.17785 c 8.69323,12.50356 13.61553,25.03376 15.90889,40.49759 1.02125,6.88619 1.87122,9.66943 3.2551,10.65894 1.03012,0.73657 11.70644,9.00614 23.72514,18.37683 l 21.85219,17.03762 3.64781,-2.38825 c 5.13511,-3.36201 12.11307,-4.84764 20.0888,-4.27698 12.22478,0.87468 21.76179,7.36037 27.26701,18.54306 2.90618,5.90329 3.2887,7.62704 3.26383,14.70802 -0.0233,6.62713 -0.51114,9.06371 -2.80737,14.02103 -3.58156,7.73218 -10.92618,14.70369 -18.4762,17.53759 -7.60402,2.85417 -19.55396,2.48901 -26.26383,-0.80255 -14.77328,-7.24711 -22.72027,-23.85336 -18.64236,-38.95553 1.34131,-4.96741 1.30804,-5.31099 -0.68621,-7.08712 -1.58591,-1.41245 -26.93157,-21.11689 -35.23818,-27.39516 -0.79425,-0.60031 -1.51745,0.7464 -2.37341,4.41969 -7.13928,30.63753 -32.33923,58.11207 -61.98427,67.57907 -13.29248,4.24489 -25.66298,5.59812 -38.25447,4.18471 -12.2121,-1.37081 -19.36735,-3.36969 -30.24557,-8.44934 -25.78909,-12.04237 -44.83882,-35.3348 -51.65084,-63.15437 -2.72002,-11.10825 -2.95053,-30.14248 -0.49798,-41.11951 8.30509,-37.17155 38.70295,-66.3884 75.54316,-72.60819 l 7.60566,-1.28407 0.26862,-21.990882 0.26862,-21.99088 -5.53013,-2.292108 c -7.07384,-2.931945 -13.91509,-9.593538 -17.32601,-16.871016 -2.2514,-4.803537 -2.68024,-7.082636 -2.67573,-14.220338 0.005,-7.268072 0.40956,-9.32468 2.79423,-14.190087 3.61075,-7.366954 11.93908,-15.0425511 18.93886,-17.4545331 28.13026,-9.6931134 54.50287,18.6266821 42.31205,45.4361041 -3.38676,7.448001 -11.21607,15.151569 -18.05224,17.762327 l -4.53577,1.732226 0.26875,22.029208 0.26875,22.029209 9,1.74862 c 14.19582,2.75812 26.74791,8.17499 37.35845,16.1221 5.33941,3.99912 5.36696,4.00676 7.75073,2.14911 1.31575,-1.02535 12.68948,-10.63928 25.27496,-21.36428 l 22.88269,-19.500004 0.67992,-5.5 c 3.60457,-29.158076 18.14251,-53.233143 41.63375,-68.946175 15.92063,-10.649138 31.79036,-15.3423026 51.9195,-15.3541848 22.54736,-0.01331 40.76051,6.4288638 58.58343,20.7215458 16.099,12.910222 27.37298,30.851922 32.06848,51.034608 l 1.69478,7.284701 32.07666,15.506425 c 29.25571,14.142734 32.25254,15.382444 34.07665,14.096654 6.48898,-4.57401 10.93807,-5.84207 20.5,-5.84282 8.94533,-7.1e-4 9.87368,0.20181 15.90013,3.46859 13.95377,7.56398 20.75305,24.08516 16.29316,39.58983 -2.78479,9.68127 -11.95579,18.98403 -21.62479,21.93549 -16.63615,5.07818 -33.23396,-1.94453 -40.76865,-17.24967 -2.75218,-5.59046 -3.27574,-7.77237 -3.28675,-13.69736 -0.007,-3.87619 0.33957,-8.41639 0.7706,-10.08933 l 0.78371,-3.04169 -26.42661,-12.70831 c -14.53463,-6.98956 -26.65561,-12.7083 -26.93551,-12.7083 -0.27991,0 -0.83048,2.8125 -1.22351,6.25 -2.17444,19.01809 -12.71029,40.91288 -25.80374,53.62336 l -4.50513,4.37336 22.03743,29.37664 22.03743,29.37664 4.62611,0.0198 c 24.02206,0.10286 49.13245,10.75404 66.24033,28.09744 11.47464,11.63261 18.31822,23.45025 23.59492,40.74418 2.37347,7.77888 2.6374,10.23085 2.65201,24.63857 0.019,18.73342 -1.58559,26.21392 -8.79468,41 -12.85711,26.37036 -36.79264,45.12423 -65.06646,50.98058 -10.36028,2.14592 -27.6248,2.14779 -38,0.004 -23.03915,-4.76013 -45.91526,-20.23505 -58.36903,-39.48457 -1.95707,-3.025 -3.67291,-5.67325 -3.81297,-5.88499 -0.45257,-0.68421 -34.318,25.0735 -34.318,26.10193 0,0.54691 0.7279,3.75933 1.61756,7.13872 0.88966,3.37938 1.90216,10.62716 2.25,16.10616 l 0.63244,9.96183 31.62685,15.34425 31.62684,15.34426 4.68509,-2.9712 c 16.7165,-10.60129 39.35707,-3.67464 48.2672,14.76686 3.90169,8.07544 3.87387,19.0616 -0.0702,27.70961 -7.75604,17.00646 -27.54281,24.61261 -44.25323,17.01119 -14.34254,-6.52429 -22.55925,-22.16494 -19.54061,-37.19589 0.6369,-3.17136 1.04551,-5.82186 0.90802,-5.89 -4.52905,-2.24472 -53.6052,-25.89333 -54.40816,-26.21798 -0.70511,-0.28508 -1.80831,1.80916 -2.82009,5.3535 -2.595,9.09045 -8.94971,21.43953 -15.51835,30.15677 -19.62129,26.03942 -54.06317,40.72524 -85.50338,36.45815 z m 24.5,-17.7336 c 4.125,-0.75385 10.425,-2.42821 14,-3.7208 l 6.5,-2.35014 0.284,-10.76056 c 0.27843,-10.54969 0.23148,-10.80923 -2.39603,-13.24431 l -2.68002,-2.48376 h -28.79821 -28.79821 l -2.80577,2.41159 c -2.6908,2.31277 -2.81957,2.83964 -3.14273,12.85884 l -0.33696,10.44726 6.33696,2.52459 c 5.49391,2.18873 8.66545,3.03043 19.33697,5.13188 4.44388,0.87509 15.43088,0.47732 22.5,-0.81459 z m 173.95562,-0.53693 c 6.21953,-3.17296 8.54438,-7.30857 8.54438,-15.19931 0,-5.20808 -0.46014,-7.29769 -2.09195,-9.5 -3.72673,-5.02967 -8.14459,-7.32333 -14.10559,-7.32333 -6.52342,0 -10.27642,1.78824 -14.00077,6.67111 -2.41269,3.1632 -2.80169,4.58651 -2.80169,10.25105 0,5.28742 0.45719,7.21883 2.33049,9.84524 4.85676,6.80931 14.56084,9.11426 22.12513,5.25524 z M 341.27369,473.39627 c 0.67564,-10.0105 5.41109,-17.34378 14.25825,-22.08023 3.86169,-2.0674 5.48381,-2.18414 34.38081,-2.47426 35.49489,-0.35637 37.44313,-0.0197 45.28852,7.82567 5.11802,5.11802 7.88358,11.90828 7.88358,19.35649 v 4.01466 l 3.59733,-3.44616 c 5.2271,-5.00746 12.00806,-14.79925 15.34454,-22.15769 20.97565,-46.2608 -8.38139,-99.96508 -58.96532,-107.86815 -21.98659,-3.43512 -46.06086,3.94262 -62.27468,19.08454 -12.92516,12.07066 -20.0531,23.94304 -23.81244,39.66226 -1.74522,7.29736 -2.03001,10.91895 -1.63825,20.83287 0.5318,13.4576 3.1706,23.16329 9.24401,34 3.55478,6.34276 13.95258,19.5 15.41031,19.5 0.47383,0 1.05133,-2.8125 1.28334,-6.25 z m 38.11316,-44.79395 c -7.04854,-2.78935 -14.25508,-9.50976 -17.81256,-16.61097 -2.59291,-5.17581 -2.92657,-6.87559 -2.91397,-14.84508 0.0173,-10.95963 2.25313,-16.39219 9.91692,-24.09621 7.08979,-7.127 14.23003,-9.74566 25.00761,-9.17144 9.44582,0.50327 16.32006,3.51908 22.47283,9.85909 15.86458,16.34736 10.99062,44.05409 -9.47283,53.84973 -7.12595,3.41111 -19.93506,3.88908 -27.198,1.01488 z m 19.23937,-15.83571 c 9.83438,-4.46714 13.64686,-16.98632 7.64279,-25.09689 -6.69274,-9.04085 -18.90521,-10.23574 -26.54384,-2.5971 -8.33695,8.33694 -6.0133,22.21008 4.59992,27.46353 5.2043,2.57608 9.0025,2.63729 14.30113,0.23046 z m -168.46305,24.60586 c 5.43483,-3.66253 7.92168,-8.19056 7.92168,-14.42374 0,-2.97098 -0.67453,-6.70617 -1.49895,-8.30043 -4.19467,-8.1116 -15.95726,-11.43378 -23.98067,-6.77301 -11.16708,6.48692 -11.24037,23.09241 -0.13182,29.86621 4.5491,2.77396 13.29667,2.59147 17.68976,-0.36903 z m 381.92168,-41.76183 c 2.475,-0.54271 7.7625,-2.15236 11.75,-3.57701 l 7.25,-2.59027 v -9.96429 c 0,-17.08107 0.50884,-16.8328 -34.5,-16.8328 -28.88108,0 -30.96833,0.34294 -33.30531,5.47206 -0.65708,1.44212 -1.19469,6.64173 -1.19469,11.55467 v 8.93262 l 4.09697,2.09012 c 7.59623,3.87531 17.59415,5.83825 29.90303,5.87102 6.325,0.0168 13.525,-0.41341 16,-0.95612 z m -63.27058,-35.46437 c 2.7109,-5.19474 6.68003,-8.88845 12.27058,-11.41909 4.21668,-1.90874 6.45179,-2.03699 35.5,-2.03699 29.04821,0 31.28332,0.12825 35.5,2.03699 9.11757,4.1272 13.62225,10.48898 15.32096,21.63722 l 1.18201,7.75723 6.17835,-7.33988 c 18.15967,-21.57368 23.52076,-48.67343 14.80377,-74.83148 -3.89201,-11.67921 -9.6411,-20.66359 -19.49636,-30.46792 -7.51271,-7.47388 -10.13605,-9.35163 -19.09883,-13.6707 -12.54759,-6.04655 -21.546,-8.16538 -34.67734,-8.16538 -35.30815,0 -66.03417,24.32874 -74.59485,59.06389 -2.05591,8.34191 -2.10756,26.23289 -0.10032,34.74706 3.14565,13.34292 10.56589,26.96407 19.63423,36.04206 l 4.34838,4.35301 0.571,-6.85301 c 0.33347,-4.00227 1.43933,-8.51694 2.65842,-10.85301 z m 37.58487,-33.35722 c -22.79433,-7.87658 -30.52764,-33.70432 -15.98236,-53.37788 3.33379,-4.50918 11.67079,-9.58317 18.66807,-11.3616 11.24103,-2.857 22.92694,0.47101 31.39761,8.94168 6.35332,6.35332 9.01497,12.60762 9.42854,22.15502 0.27257,6.29252 -0.10048,9.19083 -1.74781,13.57935 -6.28615,16.74639 -25.14497,25.80616 -41.76405,20.06343 z m 18.37382,-16.79907 c 3.9437,-1.87141 7.95483,-7.30839 8.90809,-12.0747 2.02849,-10.14246 -6.5129,-20.26901 -17.0962,-20.26901 -7.24432,0 -12.96397,4.07951 -16.03937,11.43999 -3.11833,7.46321 0.14481,15.90882 7.99675,20.69709 3.83055,2.33594 11.5368,2.43405 16.23073,0.20663 z M 298.58485,284.04133 c 3.3,-0.78447 8.3625,-2.37155 11.25,-3.52683 l 5.25,-2.10052 v -10.32809 c 0,-9.47611 -0.19909,-10.55954 -2.41342,-13.13386 l -2.41341,-2.80576 H 281.19416 252.1303 l -2.73685,2.73685 c -2.54401,2.54401 -2.76497,3.43691 -3.1359,12.67194 l -0.39904,9.93509 3.89326,1.9862 c 12.6438,6.45038 32.9261,8.3464 48.83308,4.56498 z m 150.1849,1.54132 c 3.44863,-1.30298 8.01022,-5.51102 9.90438,-9.13672 1.68963,-3.23421 1.85107,-11.07236 0.29073,-14.1154 -5.40196,-10.53512 -18.28134,-13.66085 -26.51197,-6.43425 -4.61819,4.05482 -6.36804,7.69574 -6.36804,13.24999 0,11.87921 11.90891,20.50783 22.6849,16.43638 z M 233.21299,248.98591 c 2.86314,-5.56363 9.20526,-10.81378 14.92263,-12.35331 2.52805,-0.68074 15.11586,-0.96262 34.70795,-0.77722 33.92408,0.32101 34.39476,0.40141 41.17908,7.03434 4.67875,4.57434 7.06106,9.93851 7.76587,17.48613 l 0.62066,6.64655 5.29096,-5.68433 c 26.78599,-28.77748 26.87082,-74.62366 0.19092,-103.19223 -11.87296,-12.71345 -23.84015,-19.87137 -39.47334,-23.61014 -12.43556,-2.97405 -29.35539,-2.33765 -40.83287,1.53582 -26.3308,8.88624 -45.19154,29.40481 -51.58131,56.11519 -2.76316,11.55052 -2.30155,28.20727 1.07969,38.95956 3.36919,10.71396 9.52292,21.68759 16.33535,29.12998 l 6.16627,6.73648 0.57353,-6.60282 c 0.35816,-4.12332 1.50523,-8.41326 3.05461,-11.424 z m 37.73502,-32.84674 c -15.0426,-4.82544 -24.97433,-19.69069 -23.52503,-35.21092 0.7644,-8.18584 3.40875,-14.02797 9.10683,-20.11968 16.17294,-17.29019 44.14485,-12.95996 54.69324,8.46686 3.86767,7.85635 4.43259,17.64888 1.50754,26.13238 -2.3882,6.92649 -10.09641,15.33334 -17.2829,18.84937 -6.80176,3.32779 -17.44414,4.14531 -24.49968,1.88199 z m 18.33515,-17.13467 c 7.98928,-4.0153 11.19344,-15.6013 6.52001,-23.57591 -6.33858,-10.81596 -21.68087,-11.66551 -28.84992,-1.5975 -3.47191,4.87584 -3.82272,14.1793 -0.706,18.72323 5.64832,8.23483 14.53431,10.72296 23.03591,6.45018 z m 214.7495,-25.9848 c 3.0537,-0.77774 7.91469,-2.35719 10.80219,-3.5099 l 5.25,-2.09582 v -10.16135 c 0,-16.97203 0.38024,-16.79831 -35.90373,-16.40322 l -27.26323,0.29686 -2.91652,3.26578 c -2.80438,3.1402 -2.91652,3.64523 -2.91652,13.13414 v 9.86836 l 6.75,2.49482 c 6.38757,2.36086 14.05776,4.26075 20.75,5.13973 4.92903,0.6474 19.50022,-0.51462 25.44781,-2.0294 z m 166.09655,-15.36923 c 4.0208,-1.11701 9.31585,-6.13258 10.89431,-10.3193 5.67036,-15.04015 -11.18947,-29.14387 -25.05311,-20.95762 -1.43794,0.84908 -3.83298,3.39529 -5.32231,5.65825 -2.34398,3.56157 -2.65996,4.92646 -2.35137,10.15701 0.43284,7.33683 2.95152,11.33936 9.02836,14.34734 4.71927,2.336 7.52697,2.58035 12.80412,1.11432 z m -235.04436,-7.89001 c 0,-10.62929 7.89971,-21.3259 17.77526,-24.06858 2.18679,-0.60733 16.11178,-1.03273 33.72474,-1.03026 29.32015,0.004 30.11347,0.057 35.00728,2.33596 5.38803,2.50908 10.94795,8.10062 13.04474,13.11894 0.716,1.71364 1.62074,5.93459 2.01053,9.37988 l 0.70871,6.26417 2.96615,-2.80715 c 4.17923,-3.9552 10.97665,-13.70936 14.61939,-20.97852 19.69652,-39.304858 0.64241,-88.22235 -40.89991,-105.002036 -15.56123,-6.285461 -36.17155,-7.044959 -51.45689,-1.896207 -26.22801,8.834708 -45.01047,29.022354 -51.62319,55.485317 -1.74822,6.996063 -2.02999,10.538551 -1.67033,21.000006 0.37084,10.78689 0.87043,13.83565 3.49781,21.3455 1.68585,4.81867 4.57955,11.26531 6.43045,14.32587 3.92722,6.49389 13.59881,18.41292 14.941,18.41292 0.50834,0 0.92426,-2.64861 0.92426,-5.88581 z m 40.00539,-44.72227 c -18.99751,-6.899842 -28.0056,-27.664491 -20.02178,-46.152388 2.98296,-6.907554 11.75053,-15.075159 18.92315,-17.628243 17.89881,-6.371052 37.69538,3.125414 43.78757,21.005006 2.3364,6.85696 1.39951,19.414493 -1.93413,25.923847 -3.14733,6.14557 -10.2949,12.919928 -16.58453,15.718558 -6.2808,2.79471 -18.07336,3.3476 -24.17028,1.13322 z m 20.32311,-18.025306 c 6.53685,-4.266657 9.35234,-13.502475 6.29466,-20.648737 -3.9574,-9.249053 -14.7394,-13.250035 -23.56847,-8.745781 -10.69088,5.454078 -12.9114,18.978173 -4.47575,27.259485 6.22971,6.115729 14.41917,6.919642 21.74956,2.135033 z M 290.76572,52.762481 c 10.19389,-7.384413 9.55965,-22.636225 -1.20125,-28.887197 -8.02341,-4.66077 -19.786,-1.338586 -23.98067,6.773015 -2.33142,4.508462 -1.94423,13.041454 0.77485,17.076287 3.72863,5.532924 8.16862,7.92168 14.72404,7.92168 4.69761,0 6.40336,-0.508005 9.68303,-2.883785 z"
       id="path293" />
  </g>
</svg>
